<svg xmlns:xlink="http://www.w3.org/1999/xlink" version="1.1" class="highcharts-root" style="font-family:&quot;Lucida Grande&quot;, &quot;Lucida Sans Unicode&quot;, Arial, Helvetica, sans-serif;font-size:12px;" xmlns="http://www.w3.org/2000/svg" width="1920" height="1080" viewBox="0 0 1920 1080"><desc>Created with Highcharts 7.1.2</desc><defs><clipPath id="highcharts-42fkwng-679-"><rect x="0" y="0" width="1777" height="933" fill="none"></rect></clipPath></defs><rect fill="#ffffff" class="highcharts-background" x="0" y="0" width="1920" height="1080" rx="0" ry="0"></rect><rect fill="none" class="highcharts-plot-background" x="133" y="46" width="1777" height="933"></rect><g class="highcharts-pane-group" data-z-index="0"></g><g class="highcharts-grid highcharts-xaxis-grid" data-z-index="1"><path fill="none" stroke-dasharray="none" data-z-index="1" class="highcharts-grid-line" d="M 149.5 46 L 149.5 979" opacity="1"></path><path fill="none" stroke-dasharray="none" data-z-index="1" class="highcharts-grid-line" d="M 221.5 46 L 221.5 979" opacity="1"></path><path fill="none" stroke-dasharray="none" data-z-index="1" class="highcharts-grid-line" d="M 293.5 46 L 293.5 979" opacity="1"></path><path fill="none" stroke-dasharray="none" data-z-index="1" class="highcharts-grid-line" d="M 365.5 46 L 365.5 979" opacity="1"></path><path fill="none" stroke-dasharray="none" data-z-index="1" class="highcharts-grid-line" d="M 437.5 46 L 437.5 979" opacity="1"></path><path fill="none" stroke-dasharray="none" data-z-index="1" class="highcharts-grid-line" d="M 509.5 46 L 509.5 979" opacity="1"></path><path fill="none" stroke-dasharray="none" data-z-index="1" class="highcharts-grid-line" d="M 581.5 46 L 581.5 979" opacity="1"></path><path fill="none" stroke-dasharray="none" data-z-index="1" class="highcharts-grid-line" d="M 653.5 46 L 653.5 979" opacity="1"></path><path fill="none" stroke-dasharray="none" data-z-index="1" class="highcharts-grid-line" d="M 725.5 46 L 725.5 979" opacity="1"></path><path fill="none" stroke-dasharray="none" data-z-index="1" class="highcharts-grid-line" d="M 797.5 46 L 797.5 979" opacity="1"></path><path fill="none" stroke-dasharray="none" data-z-index="1" class="highcharts-grid-line" d="M 869.5 46 L 869.5 979" opacity="1"></path><path fill="none" stroke-dasharray="none" data-z-index="1" class="highcharts-grid-line" d="M 941.5 46 L 941.5 979" opacity="1"></path><path fill="none" stroke-dasharray="none" data-z-index="1" class="highcharts-grid-line" d="M 1013.5 46 L 1013.5 979" opacity="1"></path><path fill="none" stroke-dasharray="none" data-z-index="1" class="highcharts-grid-line" d="M 1085.5 46 L 1085.5 979" opacity="1"></path><path fill="none" stroke-dasharray="none" data-z-index="1" class="highcharts-grid-line" d="M 1157.5 46 L 1157.5 979" opacity="1"></path><path fill="none" stroke-dasharray="none" data-z-index="1" class="highcharts-grid-line" d="M 1229.5 46 L 1229.5 979" opacity="1"></path><path fill="none" stroke-dasharray="none" data-z-index="1" class="highcharts-grid-line" d="M 1301.5 46 L 1301.5 979" opacity="1"></path><path fill="none" stroke-dasharray="none" data-z-index="1" class="highcharts-grid-line" d="M 1373.5 46 L 1373.5 979" opacity="1"></path><path fill="none" stroke-dasharray="none" data-z-index="1" class="highcharts-grid-line" d="M 1445.5 46 L 1445.5 979" opacity="1"></path><path fill="none" stroke-dasharray="none" data-z-index="1" class="highcharts-grid-line" d="M 1517.5 46 L 1517.5 979" opacity="1"></path><path fill="none" stroke-dasharray="none" data-z-index="1" class="highcharts-grid-line" d="M 1589.5 46 L 1589.5 979" opacity="1"></path><path fill="none" stroke-dasharray="none" data-z-index="1" class="highcharts-grid-line" d="M 1661.5 46 L 1661.5 979" opacity="1"></path><path fill="none" stroke-dasharray="none" data-z-index="1" class="highcharts-grid-line" d="M 1733.5 46 L 1733.5 979" opacity="1"></path><path fill="none" stroke-dasharray="none" data-z-index="1" class="highcharts-grid-line" d="M 1805.5 46 L 1805.5 979" opacity="1"></path><path fill="none" stroke-dasharray="none" data-z-index="1" class="highcharts-grid-line" d="M 1877.5 46 L 1877.5 979" opacity="1"></path></g><g class="highcharts-grid highcharts-yaxis-grid" data-z-index="1"><path fill="none" stroke="#e6e6e6" stroke-width="1" stroke-dasharray="none" data-z-index="1" class="highcharts-grid-line" d="M 133 862.5 L 1910 862.5" opacity="1"></path><path fill="none" stroke="#e6e6e6" stroke-width="1" stroke-dasharray="none" data-z-index="1" class="highcharts-grid-line" d="M 133 746.5 L 1910 746.5" opacity="1"></path><path fill="none" stroke="#e6e6e6" stroke-width="1" stroke-dasharray="none" data-z-index="1" class="highcharts-grid-line" d="M 133 629.5 L 1910 629.5" opacity="1"></path><path fill="none" stroke="#e6e6e6" stroke-width="1" stroke-dasharray="none" data-z-index="1" class="highcharts-grid-line" d="M 133 513.5 L 1910 513.5" opacity="1"></path><path fill="none" stroke="#e6e6e6" stroke-width="1" stroke-dasharray="none" data-z-index="1" class="highcharts-grid-line" d="M 133 396.5 L 1910 396.5" opacity="1"></path><path fill="none" stroke="#e6e6e6" stroke-width="1" stroke-dasharray="none" data-z-index="1" class="highcharts-grid-line" d="M 133 279.5 L 1910 279.5" opacity="1"></path><path fill="none" stroke="#e6e6e6" stroke-width="1" stroke-dasharray="none" data-z-index="1" class="highcharts-grid-line" d="M 133 163.5 L 1910 163.5" opacity="1"></path><path fill="none" stroke="#e6e6e6" stroke-width="1" stroke-dasharray="none" data-z-index="1" class="highcharts-grid-line" d="M 133 45.5 L 1910 45.5" opacity="1"></path><path fill="none" stroke="#e6e6e6" stroke-width="1" stroke-dasharray="none" data-z-index="1" class="highcharts-grid-line" d="M 133 979.5 L 1910 979.5" opacity="1"></path></g><rect fill="none" class="highcharts-plot-border" data-z-index="1" x="133" y="46" width="1777" height="933"></rect><g class="highcharts-axis highcharts-xaxis" data-z-index="2"><path fill="none" class="highcharts-tick" stroke="#ccd6eb" stroke-width="1" d="M 149.5 979 L 149.5 989" opacity="1"></path><path fill="none" class="highcharts-tick" stroke="#ccd6eb" stroke-width="1" d="M 221.5 979 L 221.5 989" opacity="1"></path><path fill="none" class="highcharts-tick" stroke="#ccd6eb" stroke-width="1" d="M 293.5 979 L 293.5 989" opacity="1"></path><path fill="none" class="highcharts-tick" stroke="#ccd6eb" stroke-width="1" d="M 365.5 979 L 365.5 989" opacity="1"></path><path fill="none" class="highcharts-tick" stroke="#ccd6eb" stroke-width="1" d="M 437.5 979 L 437.5 989" opacity="1"></path><path fill="none" class="highcharts-tick" stroke="#ccd6eb" stroke-width="1" d="M 509.5 979 L 509.5 989" opacity="1"></path><path fill="none" class="highcharts-tick" stroke="#ccd6eb" stroke-width="1" d="M 581.5 979 L 581.5 989" opacity="1"></path><path fill="none" class="highcharts-tick" stroke="#ccd6eb" stroke-width="1" d="M 653.5 979 L 653.5 989" opacity="1"></path><path fill="none" class="highcharts-tick" stroke="#ccd6eb" stroke-width="1" d="M 725.5 979 L 725.5 989" opacity="1"></path><path fill="none" class="highcharts-tick" stroke="#ccd6eb" stroke-width="1" d="M 797.5 979 L 797.5 989" opacity="1"></path><path fill="none" class="highcharts-tick" stroke="#ccd6eb" stroke-width="1" d="M 869.5 979 L 869.5 989" opacity="1"></path><path fill="none" class="highcharts-tick" stroke="#ccd6eb" stroke-width="1" d="M 941.5 979 L 941.5 989" opacity="1"></path><path fill="none" class="highcharts-tick" stroke="#ccd6eb" stroke-width="1" d="M 1013.5 979 L 1013.5 989" opacity="1"></path><path fill="none" class="highcharts-tick" stroke="#ccd6eb" stroke-width="1" d="M 1085.5 979 L 1085.5 989" opacity="1"></path><path fill="none" class="highcharts-tick" stroke="#ccd6eb" stroke-width="1" d="M 1157.5 979 L 1157.5 989" opacity="1"></path><path fill="none" class="highcharts-tick" stroke="#ccd6eb" stroke-width="1" d="M 1229.5 979 L 1229.5 989" opacity="1"></path><path fill="none" class="highcharts-tick" stroke="#ccd6eb" stroke-width="1" d="M 1301.5 979 L 1301.5 989" opacity="1"></path><path fill="none" class="highcharts-tick" stroke="#ccd6eb" stroke-width="1" d="M 1373.5 979 L 1373.5 989" opacity="1"></path><path fill="none" class="highcharts-tick" stroke="#ccd6eb" stroke-width="1" d="M 1445.5 979 L 1445.5 989" opacity="1"></path><path fill="none" class="highcharts-tick" stroke="#ccd6eb" stroke-width="1" d="M 1517.5 979 L 1517.5 989" opacity="1"></path><path fill="none" class="highcharts-tick" stroke="#ccd6eb" stroke-width="1" d="M 1589.5 979 L 1589.5 989" opacity="1"></path><path fill="none" class="highcharts-tick" stroke="#ccd6eb" stroke-width="1" d="M 1661.5 979 L 1661.5 989" opacity="1"></path><path fill="none" class="highcharts-tick" stroke="#ccd6eb" stroke-width="1" d="M 1733.5 979 L 1733.5 989" opacity="1"></path><path fill="none" class="highcharts-tick" stroke="#ccd6eb" stroke-width="1" d="M 1805.5 979 L 1805.5 989" opacity="1"></path><path fill="none" class="highcharts-tick" stroke="#ccd6eb" stroke-width="1" d="M 1877.5 979 L 1877.5 989" opacity="1"></path><text x="1021.5" data-z-index="7" text-anchor="middle" transform="translate(0,0)" class="highcharts-axis-title" style="color:#666666;font-weight:normal;fill:#666666;" y="1018"><tspan>sum(Total Adjusted)</tspan></text><path fill="none" class="highcharts-axis-line" stroke="#ccd6eb" stroke-width="1" data-z-index="7" d="M 133 979.5 L 1910 979.5"></path></g><g class="highcharts-axis highcharts-yaxis" data-z-index="2"><text x="26.46875" data-z-index="7" text-anchor="middle" transform="translate(0,0) rotate(270 26.46875 512.5)" class="highcharts-axis-title" style="color:#666666;font-weight:normal;fill:#666666;" y="512.5"><tspan>Category</tspan></text><path fill="none" class="highcharts-axis-line" data-z-index="7" d="M 133 46 L 133 979"></path></g><g class="highcharts-series-group" data-z-index="3"><g data-z-index="0.1" class="highcharts-series highcharts-series-0 highcharts-scatter-series " transform="translate(133,46) scale(1 1)" clip-path="url(#highcharts-42fkwng-679-)"></g><g data-z-index="0.1" class="highcharts-markers highcharts-series-0 highcharts-scatter-series " transform="translate(133,46) scale(1 1)" clip-path="none"><path fill="#7cb5ec" d="M 17 296 A 4 4 0 1 1 17.003999999333335 295.9999980000002 Z" opacity="1" class="highcharts-point"></path><path fill="#7cb5ec" d="M 19 412 A 4 4 0 1 1 19.003999999333335 411.9999980000002 Z" opacity="1" class="highcharts-point"></path><path fill="#7cb5ec" d="M 21 62 A 4 4 0 1 1 21.003999999333335 61.99999800000017 Z" opacity="1" class="highcharts-point"></path><path fill="#7cb5ec" d="M 21 296 A 4 4 0 1 1 21.003999999333335 295.9999980000002 Z" opacity="1" class="highcharts-point"></path><path fill="#7cb5ec" d="M 23 762 A 4 4 0 1 1 23.003999999333335 761.9999980000001 Z" opacity="1" class="highcharts-point"></path><path fill="#7cb5ec" d="M 24 645 A 4 4 0 1 1 24.003999999333335 644.9999980000001 Z" opacity="1" class="highcharts-point"></path><path fill="#7cb5ec" d="M 25 179 A 4 4 0 1 1 25.003999999333335 178.99999800000018 Z" opacity="1" class="highcharts-point"></path><path fill="#7cb5ec" d="M 28 412 A 4 4 0 1 1 28.003999999333335 411.9999980000002 Z" opacity="1" class="highcharts-point"></path><path fill="#7cb5ec" d="M 32 412 A 4 4 0 1 1 32.00399999933334 411.9999980000002 Z" opacity="1" class="highcharts-point"></path><path fill="#7cb5ec" d="M 33 179 A 4 4 0 1 1 33.00399999933334 178.99999800000018 Z" opacity="1" class="highcharts-point"></path><path fill="#7cb5ec" d="M 34 62 A 4 4 0 1 1 34.00399999933334 61.99999800000017 Z" opacity="1" class="highcharts-point"></path><path fill="#7cb5ec" d="M 34 762 A 4 4 0 1 1 34.00399999933334 761.9999980000001 Z" opacity="1" class="highcharts-point"></path><path fill="#7cb5ec" d="M 34 62 A 4 4 0 1 1 34.00399999933334 61.99999800000017 Z" opacity="1" class="highcharts-point"></path><path fill="#7cb5ec" d="M 35 529 A 4 4 0 1 1 35.00399999933334 528.9999980000001 Z" opacity="1" class="highcharts-point"></path><path fill="#7cb5ec" d="M 35 179 A 4 4 0 1 1 35.00399999933334 178.99999800000018 Z" opacity="1" class="highcharts-point"></path><path fill="#7cb5ec" d="M 39 645 A 4 4 0 1 1 39.00399999933334 644.9999980000001 Z" opacity="1" class="highcharts-point"></path><path fill="#7cb5ec" d="M 39 529 A 4 4 0 1 1 39.00399999933334 528.9999980000001 Z" opacity="1" class="highcharts-point"></path><path fill="#7cb5ec" d="M 40 529 A 4 4 0 1 1 40.00399999933334 528.9999980000001 Z" opacity="1" class="highcharts-point"></path><path fill="#7cb5ec" d="M 40 879 A 4 4 0 1 1 40.00399999933334 878.9999980000001 Z" opacity="1" class="highcharts-point"></path><path fill="#7cb5ec" d="M 42 762 A 4 4 0 1 1 42.00399999933334 761.9999980000001 Z" opacity="1" class="highcharts-point"></path><path fill="#7cb5ec" d="M 43 62 A 4 4 0 1 1 43.00399999933334 61.99999800000017 Z" opacity="1" class="highcharts-point"></path><path fill="#7cb5ec" d="M 44 645 A 4 4 0 1 1 44.00399999933334 644.9999980000001 Z" opacity="1" class="highcharts-point"></path><path fill="#7cb5ec" d="M 45 529 A 4 4 0 1 1 45.00399999933334 528.9999980000001 Z" opacity="1" class="highcharts-point"></path><path fill="#7cb5ec" d="M 45 879 A 4 4 0 1 1 45.00399999933334 878.9999980000001 Z" opacity="1" class="highcharts-point"></path><path fill="#7cb5ec" d="M 46 645 A 4 4 0 1 1 46.00399999933334 644.9999980000001 Z" opacity="1" class="highcharts-point"></path><path fill="#7cb5ec" d="M 46 879 A 4 4 0 1 1 46.00399999933334 878.9999980000001 Z" opacity="1" class="highcharts-point"></path><path fill="#7cb5ec" d="M 47 296 A 4 4 0 1 1 47.00399999933334 295.9999980000002 Z" opacity="1" class="highcharts-point"></path><path fill="#7cb5ec" d="M 48 179 A 4 4 0 1 1 48.00399999933334 178.99999800000018 Z" opacity="1" class="highcharts-point"></path><path fill="#7cb5ec" d="M 49 179 A 4 4 0 1 1 49.00399999933334 178.99999800000018 Z" opacity="1" class="highcharts-point"></path><path fill="#7cb5ec" d="M 49 529 A 4 4 0 1 1 49.00399999933334 528.9999980000001 Z" opacity="1" class="highcharts-point"></path><path fill="#7cb5ec" d="M 51 62 A 4 4 0 1 1 51.00399999933334 61.99999800000017 Z" opacity="1" class="highcharts-point"></path><path fill="#7cb5ec" d="M 52 762 A 4 4 0 1 1 52.00399999933334 761.9999980000001 Z" opacity="1" class="highcharts-point"></path><path fill="#7cb5ec" d="M 52 62 A 4 4 0 1 1 52.00399999933334 61.99999800000017 Z" opacity="1" class="highcharts-point"></path><path fill="#7cb5ec" d="M 55 296 A 4 4 0 1 1 55.00399999933334 295.9999980000002 Z" opacity="1" class="highcharts-point"></path><path fill="#7cb5ec" d="M 56 879 A 4 4 0 1 1 56.00399999933334 878.9999980000001 Z" opacity="1" class="highcharts-point"></path><path fill="#7cb5ec" d="M 56 762 A 4 4 0 1 1 56.00399999933334 761.9999980000001 Z" opacity="1" class="highcharts-point"></path><path fill="#7cb5ec" d="M 58 412 A 4 4 0 1 1 58.00399999933334 411.9999980000002 Z" opacity="1" class="highcharts-point"></path><path fill="#7cb5ec" d="M 65 645 A 4 4 0 1 1 65.00399999933333 644.9999980000001 Z" opacity="1" class="highcharts-point"></path><path fill="#7cb5ec" d="M 65 762 A 4 4 0 1 1 65.00399999933333 761.9999980000001 Z" opacity="1" class="highcharts-point"></path><path fill="#7cb5ec" d="M 66 62 A 4 4 0 1 1 66.00399999933333 61.99999800000017 Z" opacity="1" class="highcharts-point"></path><path fill="#7cb5ec" d="M 66 645 A 4 4 0 1 1 66.00399999933333 644.9999980000001 Z" opacity="1" class="highcharts-point"></path><path fill="#7cb5ec" d="M 66 412 A 4 4 0 1 1 66.00399999933333 411.9999980000002 Z" opacity="1" class="highcharts-point"></path><path fill="#7cb5ec" d="M 67 412 A 4 4 0 1 1 67.00399999933333 411.9999980000002 Z" opacity="1" class="highcharts-point"></path><path fill="#7cb5ec" d="M 68 62 A 4 4 0 1 1 68.00399999933333 61.99999800000017 Z" opacity="1" class="highcharts-point"></path><path fill="#7cb5ec" d="M 68 879 A 4 4 0 1 1 68.00399999933333 878.9999980000001 Z" opacity="1" class="highcharts-point"></path><path fill="#7cb5ec" d="M 69 62 A 4 4 0 1 1 69.00399999933333 61.99999800000017 Z" opacity="1" class="highcharts-point"></path><path fill="#7cb5ec" d="M 70 762 A 4 4 0 1 1 70.00399999933333 761.9999980000001 Z" opacity="1" class="highcharts-point"></path><path fill="#7cb5ec" d="M 71 645 A 4 4 0 1 1 71.00399999933333 644.9999980000001 Z" opacity="1" class="highcharts-point"></path><path fill="#7cb5ec" d="M 73 762 A 4 4 0 1 1 73.00399999933333 761.9999980000001 Z" opacity="1" class="highcharts-point"></path><path fill="#7cb5ec" d="M 75 762 A 4 4 0 1 1 75.00399999933333 761.9999980000001 Z" opacity="1" class="highcharts-point"></path><path fill="#7cb5ec" d="M 77 179 A 4 4 0 1 1 77.00399999933333 178.99999800000018 Z" opacity="1" class="highcharts-point"></path><path fill="#7cb5ec" d="M 77 179 A 4 4 0 1 1 77.00399999933333 178.99999800000018 Z" opacity="1" class="highcharts-point"></path><path fill="#7cb5ec" d="M 78 179 A 4 4 0 1 1 78.00399999933333 178.99999800000018 Z" opacity="1" class="highcharts-point"></path><path fill="#7cb5ec" d="M 78 645 A 4 4 0 1 1 78.00399999933333 644.9999980000001 Z" opacity="1" class="highcharts-point"></path><path fill="#7cb5ec" d="M 78 296 A 4 4 0 1 1 78.00399999933333 295.9999980000002 Z" opacity="1" class="highcharts-point"></path><path fill="#7cb5ec" d="M 78 879 A 4 4 0 1 1 78.00399999933333 878.9999980000001 Z" opacity="1" class="highcharts-point"></path><path fill="#7cb5ec" d="M 79 412 A 4 4 0 1 1 79.00399999933333 411.9999980000002 Z" opacity="1" class="highcharts-point"></path><path fill="#7cb5ec" d="M 79 879 A 4 4 0 1 1 79.00399999933333 878.9999980000001 Z" opacity="1" class="highcharts-point"></path><path fill="#7cb5ec" d="M 79 179 A 4 4 0 1 1 79.00399999933333 178.99999800000018 Z" opacity="1" class="highcharts-point"></path><path fill="#7cb5ec" d="M 87 762 A 4 4 0 1 1 87.00399999933333 761.9999980000001 Z" opacity="1" class="highcharts-point"></path><path fill="#7cb5ec" d="M 88 412 A 4 4 0 1 1 88.00399999933333 411.9999980000002 Z" opacity="1" class="highcharts-point"></path><path fill="#7cb5ec" d="M 89 179 A 4 4 0 1 1 89.00399999933333 178.99999800000018 Z" opacity="1" class="highcharts-point"></path><path fill="#7cb5ec" d="M 91 645 A 4 4 0 1 1 91.00399999933333 644.9999980000001 Z" opacity="1" class="highcharts-point"></path><path fill="#7cb5ec" d="M 92 529 A 4 4 0 1 1 92.00399999933333 528.9999980000001 Z" opacity="1" class="highcharts-point"></path><path fill="#7cb5ec" d="M 93 645 A 4 4 0 1 1 93.00399999933333 644.9999980000001 Z" opacity="1" class="highcharts-point"></path><path fill="#7cb5ec" d="M 96 879 A 4 4 0 1 1 96.00399999933333 878.9999980000001 Z" opacity="1" class="highcharts-point"></path><path fill="#7cb5ec" d="M 98 296 A 4 4 0 1 1 98.00399999933333 295.9999980000002 Z" opacity="1" class="highcharts-point"></path><path fill="#7cb5ec" d="M 105 645 A 4 4 0 1 1 105.00399999933333 644.9999980000001 Z" opacity="1" class="highcharts-point"></path><path fill="#7cb5ec" d="M 105 62 A 4 4 0 1 1 105.00399999933333 61.99999800000017 Z" opacity="1" class="highcharts-point"></path><path fill="#7cb5ec" d="M 107 879 A 4 4 0 1 1 107.00399999933333 878.9999980000001 Z" opacity="1" class="highcharts-point"></path><path fill="#7cb5ec" d="M 107 296 A 4 4 0 1 1 107.00399999933333 295.9999980000002 Z" opacity="1" class="highcharts-point"></path><path fill="#7cb5ec" d="M 108 412 A 4 4 0 1 1 108.00399999933333 411.9999980000002 Z" opacity="1" class="highcharts-point"></path><path fill="#7cb5ec" d="M 109 179 A 4 4 0 1 1 109.00399999933333 178.99999800000018 Z" opacity="1" class="highcharts-point"></path><path fill="#7cb5ec" d="M 109 412 A 4 4 0 1 1 109.00399999933333 411.9999980000002 Z" opacity="1" class="highcharts-point"></path><path fill="#7cb5ec" d="M 112 296 A 4 4 0 1 1 112.00399999933333 295.9999980000002 Z" opacity="1" class="highcharts-point"></path><path fill="#7cb5ec" d="M 115 179 A 4 4 0 1 1 115.00399999933333 178.99999800000018 Z" opacity="1" class="highcharts-point"></path><path fill="#7cb5ec" d="M 116 762 A 4 4 0 1 1 116.00399999933333 761.9999980000001 Z" opacity="1" class="highcharts-point"></path><path fill="#7cb5ec" d="M 121 412 A 4 4 0 1 1 121.00399999933333 411.9999980000002 Z" opacity="1" class="highcharts-point"></path><path fill="#7cb5ec" d="M 122 762 A 4 4 0 1 1 122.00399999933333 761.9999980000001 Z" opacity="1" class="highcharts-point"></path><path fill="#7cb5ec" d="M 125 296 A 4 4 0 1 1 125.00399999933333 295.9999980000002 Z" opacity="1" class="highcharts-point"></path><path fill="#7cb5ec" d="M 127 62 A 4 4 0 1 1 127.00399999933333 61.99999800000017 Z" opacity="1" class="highcharts-point"></path><path fill="#7cb5ec" d="M 130 179 A 4 4 0 1 1 130.00399999933333 178.99999800000018 Z" opacity="1" class="highcharts-point"></path><path fill="#7cb5ec" d="M 131 529 A 4 4 0 1 1 131.00399999933333 528.9999980000001 Z" opacity="1" class="highcharts-point"></path><path fill="#7cb5ec" d="M 136 296 A 4 4 0 1 1 136.00399999933333 295.9999980000002 Z" opacity="1" class="highcharts-point"></path><path fill="#7cb5ec" d="M 141 62 A 4 4 0 1 1 141.00399999933333 61.99999800000017 Z" opacity="1" class="highcharts-point"></path><path fill="#7cb5ec" d="M 141 762 A 4 4 0 1 1 141.00399999933333 761.9999980000001 Z" opacity="1" class="highcharts-point"></path><path fill="#7cb5ec" d="M 143 762 A 4 4 0 1 1 143.00399999933333 761.9999980000001 Z" opacity="1" class="highcharts-point"></path><path fill="#7cb5ec" d="M 152 762 A 4 4 0 1 1 152.00399999933333 761.9999980000001 Z" opacity="1" class="highcharts-point"></path><path fill="#7cb5ec" d="M 152 529 A 4 4 0 1 1 152.00399999933333 528.9999980000001 Z" opacity="1" class="highcharts-point"></path><path fill="#7cb5ec" d="M 153 762 A 4 4 0 1 1 153.00399999933333 761.9999980000001 Z" opacity="1" class="highcharts-point"></path><path fill="#7cb5ec" d="M 154 62 A 4 4 0 1 1 154.00399999933333 61.99999800000017 Z" opacity="1" class="highcharts-point"></path><path fill="#7cb5ec" d="M 156 412 A 4 4 0 1 1 156.00399999933333 411.9999980000002 Z" opacity="1" class="highcharts-point"></path><path fill="#7cb5ec" d="M 156 179 A 4 4 0 1 1 156.00399999933333 178.99999800000018 Z" opacity="1" class="highcharts-point"></path></g><g data-z-index="0.1" class="highcharts-series highcharts-series-1 highcharts-scatter-series " transform="translate(133,46) scale(1 1)" clip-path="url(#highcharts-42fkwng-679-)"></g><g data-z-index="0.1" class="highcharts-markers highcharts-series-1 highcharts-scatter-series " transform="translate(133,46) scale(1 1)" clip-path="none"><path fill="#90ed7d" d="M 385 645 A 4 4 0 1 1 385.00399999933336 644.9999980000001 Z" opacity="1" class="highcharts-point"></path><path fill="#90ed7d" d="M 387 62 A 4 4 0 1 1 387.00399999933336 61.99999800000017 Z" opacity="1" class="highcharts-point"></path><path fill="#90ed7d" d="M 391 879 A 4 4 0 1 1 391.00399999933336 878.9999980000001 Z" opacity="1" class="highcharts-point"></path><path fill="#90ed7d" d="M 394 179 A 4 4 0 1 1 394.00399999933336 178.99999800000018 Z" opacity="1" class="highcharts-point"></path><path fill="#90ed7d" d="M 406 645 A 4 4 0 1 1 406.00399999933336 644.9999980000001 Z" opacity="1" class="highcharts-point"></path><path fill="#90ed7d" d="M 409 412 A 4 4 0 1 1 409.00399999933336 411.9999980000002 Z" opacity="1" class="highcharts-point"></path><path fill="#90ed7d" d="M 424 529 A 4 4 0 1 1 424.00399999933336 528.9999980000001 Z" opacity="1" class="highcharts-point"></path><path fill="#90ed7d" d="M 435 412 A 4 4 0 1 1 435.00399999933336 411.9999980000002 Z" opacity="1" class="highcharts-point"></path><path fill="#90ed7d" d="M 453 62 A 4 4 0 1 1 453.00399999933336 61.99999800000017 Z" opacity="1" class="highcharts-point"></path><path fill="#90ed7d" d="M 455 762 A 4 4 0 1 1 455.00399999933336 761.9999980000001 Z" opacity="1" class="highcharts-point"></path><path fill="#90ed7d" d="M 468 529 A 4 4 0 1 1 468.00399999933336 528.9999980000001 Z" opacity="1" class="highcharts-point"></path><path fill="#90ed7d" d="M 477 179 A 4 4 0 1 1 477.00399999933336 178.99999800000018 Z" opacity="1" class="highcharts-point"></path><path fill="#90ed7d" d="M 494 762 A 4 4 0 1 1 494.00399999933336 761.9999980000001 Z" opacity="1" class="highcharts-point"></path><path fill="#90ed7d" d="M 498 762 A 4 4 0 1 1 498.00399999933336 761.9999980000001 Z" opacity="1" class="highcharts-point"></path><path fill="#90ed7d" d="M 528 529 A 4 4 0 1 1 528.0039999993334 528.9999980000001 Z" opacity="1" class="highcharts-point"></path><path fill="#90ed7d" d="M 572 412 A 4 4 0 1 1 572.0039999993334 411.9999980000002 Z" opacity="1" class="highcharts-point"></path><path fill="#90ed7d" d="M 619 296 A 4 4 0 1 1 619.0039999993334 295.9999980000002 Z" opacity="1" class="highcharts-point"></path><path fill="#90ed7d" d="M 634 296 A 4 4 0 1 1 634.0039999993334 295.9999980000002 Z" opacity="1" class="highcharts-point"></path><path fill="#90ed7d" d="M 658 62 A 4 4 0 1 1 658.0039999993334 61.99999800000017 Z" opacity="1" class="highcharts-point"></path><path fill="#90ed7d" d="M 688 879 A 4 4 0 1 1 688.0039999993334 878.9999980000001 Z" opacity="1" class="highcharts-point"></path><path fill="#90ed7d" d="M 693 62 A 4 4 0 1 1 693.0039999993334 61.99999800000017 Z" opacity="1" class="highcharts-point"></path></g><g data-z-index="0.1" class="highcharts-series highcharts-series-2 highcharts-scatter-series " transform="translate(133,46) scale(1 1)" clip-path="url(#highcharts-42fkwng-679-)"></g><g data-z-index="0.1" class="highcharts-markers highcharts-series-2 highcharts-scatter-series " transform="translate(133,46) scale(1 1)" clip-path="none"><path fill="#f7a35c" d="M 165 645 A 4 4 0 1 1 165.00399999933333 644.9999980000001 Z" opacity="1" class="highcharts-point"></path><path fill="#f7a35c" d="M 165 412 A 4 4 0 1 1 165.00399999933333 411.9999980000002 Z" opacity="1" class="highcharts-point"></path><path fill="#f7a35c" d="M 173 879 A 4 4 0 1 1 173.00399999933333 878.9999980000001 Z" opacity="1" class="highcharts-point"></path><path fill="#f7a35c" d="M 175 179 A 4 4 0 1 1 175.00399999933333 178.99999800000018 Z" opacity="1" class="highcharts-point"></path><path fill="#f7a35c" d="M 176 412 A 4 4 0 1 1 176.00399999933333 411.9999980000002 Z" opacity="1" class="highcharts-point"></path><path fill="#f7a35c" d="M 176 529 A 4 4 0 1 1 176.00399999933333 528.9999980000001 Z" opacity="1" class="highcharts-point"></path><path fill="#f7a35c" d="M 185 412 A 4 4 0 1 1 185.00399999933333 411.9999980000002 Z" opacity="1" class="highcharts-point"></path><path fill="#f7a35c" d="M 193 412 A 4 4 0 1 1 193.00399999933333 411.9999980000002 Z" opacity="1" class="highcharts-point"></path><path fill="#f7a35c" d="M 196 62 A 4 4 0 1 1 196.00399999933333 61.99999800000017 Z" opacity="1" class="highcharts-point"></path><path fill="#f7a35c" d="M 199 296 A 4 4 0 1 1 199.00399999933333 295.9999980000002 Z" opacity="1" class="highcharts-point"></path><path fill="#f7a35c" d="M 200 529 A 4 4 0 1 1 200.00399999933333 528.9999980000001 Z" opacity="1" class="highcharts-point"></path><path fill="#f7a35c" d="M 203 762 A 4 4 0 1 1 203.00399999933333 761.9999980000001 Z" opacity="1" class="highcharts-point"></path><path fill="#f7a35c" d="M 211 879 A 4 4 0 1 1 211.00399999933333 878.9999980000001 Z" opacity="1" class="highcharts-point"></path><path fill="#f7a35c" d="M 214 296 A 4 4 0 1 1 214.00399999933333 295.9999980000002 Z" opacity="1" class="highcharts-point"></path><path fill="#f7a35c" d="M 214 296 A 4 4 0 1 1 214.00399999933333 295.9999980000002 Z" opacity="1" class="highcharts-point"></path><path fill="#f7a35c" d="M 215 62 A 4 4 0 1 1 215.00399999933333 61.99999800000017 Z" opacity="1" class="highcharts-point"></path><path fill="#f7a35c" d="M 226 879 A 4 4 0 1 1 226.00399999933333 878.9999980000001 Z" opacity="1" class="highcharts-point"></path><path fill="#f7a35c" d="M 232 645 A 4 4 0 1 1 232.00399999933333 644.9999980000001 Z" opacity="1" class="highcharts-point"></path><path fill="#f7a35c" d="M 232 529 A 4 4 0 1 1 232.00399999933333 528.9999980000001 Z" opacity="1" class="highcharts-point"></path><path fill="#f7a35c" d="M 234 296 A 4 4 0 1 1 234.00399999933333 295.9999980000002 Z" opacity="1" class="highcharts-point"></path><path fill="#f7a35c" d="M 237 296 A 4 4 0 1 1 237.00399999933333 295.9999980000002 Z" opacity="1" class="highcharts-point"></path><path fill="#f7a35c" d="M 246 179 A 4 4 0 1 1 246.00399999933333 178.99999800000018 Z" opacity="1" class="highcharts-point"></path><path fill="#f7a35c" d="M 246 879 A 4 4 0 1 1 246.00399999933333 878.9999980000001 Z" opacity="1" class="highcharts-point"></path><path fill="#f7a35c" d="M 253 645 A 4 4 0 1 1 253.00399999933333 644.9999980000001 Z" opacity="1" class="highcharts-point"></path><path fill="#f7a35c" d="M 254 179 A 4 4 0 1 1 254.00399999933333 178.99999800000018 Z" opacity="1" class="highcharts-point"></path><path fill="#f7a35c" d="M 266 529 A 4 4 0 1 1 266.00399999933336 528.9999980000001 Z" opacity="1" class="highcharts-point"></path><path fill="#f7a35c" d="M 268 62 A 4 4 0 1 1 268.00399999933336 61.99999800000017 Z" opacity="1" class="highcharts-point"></path><path fill="#f7a35c" d="M 271 645 A 4 4 0 1 1 271.00399999933336 644.9999980000001 Z" opacity="1" class="highcharts-point"></path><path fill="#f7a35c" d="M 271 645 A 4 4 0 1 1 271.00399999933336 644.9999980000001 Z" opacity="1" class="highcharts-point"></path><path fill="#f7a35c" d="M 271 529 A 4 4 0 1 1 271.00399999933336 528.9999980000001 Z" opacity="1" class="highcharts-point"></path><path fill="#f7a35c" d="M 275 179 A 4 4 0 1 1 275.00399999933336 178.99999800000018 Z" opacity="1" class="highcharts-point"></path><path fill="#f7a35c" d="M 276 529 A 4 4 0 1 1 276.00399999933336 528.9999980000001 Z" opacity="1" class="highcharts-point"></path><path fill="#f7a35c" d="M 285 62 A 4 4 0 1 1 285.00399999933336 61.99999800000017 Z" opacity="1" class="highcharts-point"></path><path fill="#f7a35c" d="M 291 529 A 4 4 0 1 1 291.00399999933336 528.9999980000001 Z" opacity="1" class="highcharts-point"></path><path fill="#f7a35c" d="M 299 179 A 4 4 0 1 1 299.00399999933336 178.99999800000018 Z" opacity="1" class="highcharts-point"></path><path fill="#f7a35c" d="M 328 296 A 4 4 0 1 1 328.00399999933336 295.9999980000002 Z" opacity="1" class="highcharts-point"></path><path fill="#f7a35c" d="M 329 645 A 4 4 0 1 1 329.00399999933336 644.9999980000001 Z" opacity="1" class="highcharts-point"></path><path fill="#f7a35c" d="M 330 296 A 4 4 0 1 1 330.00399999933336 295.9999980000002 Z" opacity="1" class="highcharts-point"></path><path fill="#f7a35c" d="M 338 762 A 4 4 0 1 1 338.00399999933336 761.9999980000001 Z" opacity="1" class="highcharts-point"></path><path fill="#f7a35c" d="M 341 879 A 4 4 0 1 1 341.00399999933336 878.9999980000001 Z" opacity="1" class="highcharts-point"></path><path fill="#f7a35c" d="M 363 879 A 4 4 0 1 1 363.00399999933336 878.9999980000001 Z" opacity="1" class="highcharts-point"></path><path fill="#f7a35c" d="M 367 879 A 4 4 0 1 1 367.00399999933336 878.9999980000001 Z" opacity="1" class="highcharts-point"></path></g><g data-z-index="0.1" class="highcharts-series highcharts-series-3 highcharts-scatter-series " transform="translate(133,46) scale(1 1)" clip-path="url(#highcharts-42fkwng-679-)"></g><g data-z-index="0.1" class="highcharts-markers highcharts-series-3 highcharts-scatter-series " transform="translate(133,46) scale(1 1)" clip-path="none"><path fill="#434348" d="M 826 529 A 4 4 0 1 1 826.0039999993334 528.9999980000001 Z" opacity="1" class="highcharts-point"></path><path fill="#434348" d="M 1049 645 A 4 4 0 1 1 1049.0039999993332 644.9999980000001 Z" opacity="1" class="highcharts-point"></path><path fill="#434348" d="M 1079 645 A 4 4 0 1 1 1079.0039999993332 644.9999980000001 Z" opacity="1" class="highcharts-point"></path><path fill="#434348" d="M 1087 879 A 4 4 0 1 1 1087.0039999993332 878.9999980000001 Z" opacity="1" class="highcharts-point"></path><path fill="#434348" d="M 1108 529 A 4 4 0 1 1 1108.0039999993332 528.9999980000001 Z" opacity="1" class="highcharts-point"></path><path fill="#434348" d="M 1215 296 A 4 4 0 1 1 1215.0039999993332 295.9999980000002 Z" opacity="1" class="highcharts-point"></path></g><g data-z-index="0.1" class="highcharts-series highcharts-series-4 highcharts-scatter-series " transform="translate(133,46) scale(1 1)" clip-path="url(#highcharts-42fkwng-679-)"></g><g data-z-index="0.1" class="highcharts-markers highcharts-series-4 highcharts-scatter-series " transform="translate(133,46) scale(1 1)" clip-path="none"><path fill="#8085e9" d="M 1446 529 A 4 4 0 1 1 1446.0039999993332 528.9999980000001 Z" opacity="1" class="highcharts-point"></path><path fill="#8085e9" d="M 1590 879 A 4 4 0 1 1 1590.0039999993332 878.9999980000001 Z" opacity="1" class="highcharts-point"></path><path fill="#8085e9" d="M 1759 879 A 4 4 0 1 1 1759.0039999993332 878.9999980000001 Z" opacity="1" class="highcharts-point"></path></g></g><text x="960" text-anchor="middle" class="highcharts-title" data-z-index="4" style="color:#333333;font-size:14;font-weight:normal;fill:#333333;" y="21"><tspan>Scatter plot based on Category and Total Adjusted</tspan></text><text x="960" text-anchor="middle" class="highcharts-subtitle" data-z-index="4" style="color:#666666;fill:#666666;" y="45"></text><g class="highcharts-legend" data-z-index="7" transform="translate(719,1036)"><rect fill="none" class="highcharts-legend-box" rx="0" ry="0" x="0" y="0" width="481" height="29" visibility="visible"></rect><g data-z-index="1"><g><g class="highcharts-legend-item highcharts-scatter-series highcharts-color-undefined highcharts-series-0" data-z-index="1" transform="translate(8,3)"><path fill="none" d="M 0 11 L 16 11" class="highcharts-graph" stroke-dasharray="none"></path><path fill="#7cb5ec" d="M 8 15 A 4 4 0 1 1 8.003999999333336 14.999998000000167 Z" class="highcharts-point" opacity="1"></path><text x="21" style="color:#333333;cursor:pointer;font-size:12px;font-weight:bold;fill:#333333;" text-anchor="start" data-z-index="2" y="15"><tspan>cluster_4</tspan></text></g><g class="highcharts-legend-item highcharts-scatter-series highcharts-color-undefined highcharts-series-1" data-z-index="1" transform="translate(105.1875,3)"><path fill="none" d="M 0 11 L 16 11" class="highcharts-graph" stroke-dasharray="none"></path><path fill="#90ed7d" d="M 8 15 A 4 4 0 1 1 8.003999999333336 14.999998000000167 Z" class="highcharts-point" opacity="1"></path><text x="21" y="15" style="color:#333333;cursor:pointer;font-size:12px;font-weight:bold;fill:#333333;" text-anchor="start" data-z-index="2"><tspan>cluster_3</tspan></text></g><g class="highcharts-legend-item highcharts-scatter-series highcharts-color-undefined highcharts-series-2" data-z-index="1" transform="translate(202.375,3)"><path fill="none" d="M 0 11 L 16 11" class="highcharts-graph" stroke-dasharray="none"></path><path fill="#f7a35c" d="M 8 15 A 4 4 0 1 1 8.003999999333336 14.999998000000167 Z" class="highcharts-point" opacity="1"></path><text x="21" y="15" style="color:#333333;cursor:pointer;font-size:12px;font-weight:bold;fill:#333333;" text-anchor="start" data-z-index="2"><tspan>cluster_0</tspan></text></g><g class="highcharts-legend-item highcharts-scatter-series highcharts-color-undefined highcharts-series-3" data-z-index="1" transform="translate(299.5625,3)"><path fill="none" d="M 0 11 L 16 11" class="highcharts-graph" stroke-dasharray="none"></path><path fill="#434348" d="M 8 15 A 4 4 0 1 1 8.003999999333336 14.999998000000167 Z" class="highcharts-point" opacity="1"></path><text x="21" y="15" style="color:#333333;cursor:pointer;font-size:12px;font-weight:bold;fill:#333333;" text-anchor="start" data-z-index="2"><tspan>cluster_2</tspan></text></g><g class="highcharts-legend-item highcharts-scatter-series highcharts-color-undefined highcharts-series-4" data-z-index="1" transform="translate(396.75,3)"><path fill="none" d="M 0 11 L 16 11" class="highcharts-graph" stroke-dasharray="none"></path><path fill="#8085e9" d="M 8 15 A 4 4 0 1 1 8.003999999333336 14.999998000000167 Z" class="highcharts-point" opacity="1"></path><text x="21" y="15" style="color:#333333;cursor:pointer;font-size:12px;font-weight:bold;fill:#333333;" text-anchor="start" data-z-index="2"><tspan>cluster_1</tspan></text></g></g></g></g><g class="highcharts-axis-labels highcharts-xaxis-labels" data-z-index="7"><text x="149.7779638202" style="color:#666666;cursor:default;font-size:11px;font-weight:normal;fill:#666666;" text-anchor="middle" transform="translate(0,0)" y="998" opacity="1">0</text><text x="221.76955299867" style="color:#666666;cursor:default;font-size:11px;font-weight:normal;fill:#666666;" text-anchor="middle" transform="translate(0,0)" y="998" opacity="1">2.5k</text><text x="293.76114217715" style="color:#666666;cursor:default;font-size:11px;font-weight:normal;fill:#666666;" text-anchor="middle" transform="translate(0,0)" y="998" opacity="1">5k</text><text x="365.75273135563" style="color:#666666;cursor:default;font-size:11px;font-weight:normal;fill:#666666;" text-anchor="middle" transform="translate(0,0)" y="998" opacity="1">7.5k</text><text x="437.7443205341" style="color:#666666;cursor:default;font-size:11px;font-weight:normal;fill:#666666;" text-anchor="middle" transform="translate(0,0)" y="998" opacity="1">10k</text><text x="509.73590971258" style="color:#666666;cursor:default;font-size:11px;font-weight:normal;fill:#666666;" text-anchor="middle" transform="translate(0,0)" y="998" opacity="1">12.5k</text><text x="581.72749889106" style="color:#666666;cursor:default;font-size:11px;font-weight:normal;fill:#666666;" text-anchor="middle" transform="translate(0,0)" y="998" opacity="1">15k</text><text x="653.71908806954" style="color:#666666;cursor:default;font-size:11px;font-weight:normal;fill:#666666;" text-anchor="middle" transform="translate(0,0)" y="998" opacity="1">17.5k</text><text x="725.71067724801" style="color:#666666;cursor:default;font-size:11px;font-weight:normal;fill:#666666;" text-anchor="middle" transform="translate(0,0)" y="998" opacity="1">20k</text><text x="797.70226642649" style="color:#666666;cursor:default;font-size:11px;font-weight:normal;fill:#666666;" text-anchor="middle" transform="translate(0,0)" y="998" opacity="1">22.5k</text><text x="869.69385560497" style="color:#666666;cursor:default;font-size:11px;font-weight:normal;fill:#666666;" text-anchor="middle" transform="translate(0,0)" y="998" opacity="1">25k</text><text x="941.68544478344" style="color:#666666;cursor:default;font-size:11px;font-weight:normal;fill:#666666;" text-anchor="middle" transform="translate(0,0)" y="998" opacity="1">27.5k</text><text x="1013.6770339619" style="color:#666666;cursor:default;font-size:11px;font-weight:normal;fill:#666666;" text-anchor="middle" transform="translate(0,0)" y="998" opacity="1">30k</text><text x="1085.6686231404" style="color:#666666;cursor:default;font-size:11px;font-weight:normal;fill:#666666;" text-anchor="middle" transform="translate(0,0)" y="998" opacity="1">32.5k</text><text x="1157.6602123189" style="color:#666666;cursor:default;font-size:11px;font-weight:normal;fill:#666666;" text-anchor="middle" transform="translate(0,0)" y="998" opacity="1">35k</text><text x="1229.6518014974" style="color:#666666;cursor:default;font-size:11px;font-weight:normal;fill:#666666;" text-anchor="middle" transform="translate(0,0)" y="998" opacity="1">37.5k</text><text x="1301.6433906758" style="color:#666666;cursor:default;font-size:11px;font-weight:normal;fill:#666666;" text-anchor="middle" transform="translate(0,0)" y="998" opacity="1">40k</text><text x="1373.6349798543" style="color:#666666;cursor:default;font-size:11px;font-weight:normal;fill:#666666;" text-anchor="middle" transform="translate(0,0)" y="998" opacity="1">42.5k</text><text x="1445.6265690328" style="color:#666666;cursor:default;font-size:11px;font-weight:normal;fill:#666666;" text-anchor="middle" transform="translate(0,0)" y="998" opacity="1">45k</text><text x="1517.6181582113" style="color:#666666;cursor:default;font-size:11px;font-weight:normal;fill:#666666;" text-anchor="middle" transform="translate(0,0)" y="998" opacity="1">47.5k</text><text x="1589.6097473897" style="color:#666666;cursor:default;font-size:11px;font-weight:normal;fill:#666666;" text-anchor="middle" transform="translate(0,0)" y="998" opacity="1">50k</text><text x="1661.6013365682" style="color:#666666;cursor:default;font-size:11px;font-weight:normal;fill:#666666;" text-anchor="middle" transform="translate(0,0)" y="998" opacity="1">52.5k</text><text x="1733.5929257467" style="color:#666666;cursor:default;font-size:11px;font-weight:normal;fill:#666666;" text-anchor="middle" transform="translate(0,0)" y="998" opacity="1">55k</text><text x="1805.5845149252" style="color:#666666;cursor:default;font-size:11px;font-weight:normal;fill:#666666;" text-anchor="middle" transform="translate(0,0)" y="998" opacity="1">57.5k</text><text x="1877.5761041036" style="color:#666666;cursor:default;font-size:11px;font-weight:normal;fill:#666666;" text-anchor="middle" transform="translate(0,0)" y="998" opacity="1">60k</text></g><g class="highcharts-axis-labels highcharts-yaxis-labels" data-z-index="7"><text x="118" style="color:#666666;cursor:default;font-size:11px;font-weight:normal;fill:#666666;" text-anchor="end" transform="translate(0,0)" y="925" opacity="1">Beverages</text><text x="118" style="color:#666666;cursor:default;font-size:11px;font-weight:normal;fill:#666666;" text-anchor="end" transform="translate(0,0)" y="808" opacity="1">Condiments</text><text x="118" style="color:#666666;cursor:default;font-size:11px;font-weight:normal;fill:#666666;" text-anchor="end" transform="translate(0,0)" y="691" opacity="1">Confections</text><text x="118" style="color:#666666;cursor:default;font-size:11px;font-weight:normal;fill:#666666;" text-anchor="end" transform="translate(0,0)" y="575" opacity="1"><tspan>Dairy Products</tspan></text><text x="118" style="color:#666666;cursor:default;font-size:11px;font-weight:normal;fill:#666666;" text-anchor="end" transform="translate(0,0)" y="458" opacity="1">Grains/Cereals</text><text x="118" style="color:#666666;cursor:default;font-size:11px;font-weight:normal;fill:#666666;" text-anchor="end" transform="translate(0,0)" y="342" opacity="1">Meat/Poultry</text><text x="118" style="color:#666666;cursor:default;font-size:11px;font-weight:normal;fill:#666666;" text-anchor="end" transform="translate(0,0)" y="225" opacity="1">Produce</text><text x="118" style="color:#666666;cursor:default;font-size:11px;font-weight:normal;fill:#666666;" text-anchor="end" transform="translate(0,0)" y="108" opacity="1">Seafood</text></g></svg>