<svg xmlns:xlink="http://www.w3.org/1999/xlink" version="1.1" class="highcharts-root" style="font-family:&quot;Lucida Grande&quot;, &quot;Lucida Sans Unicode&quot;, Arial, Helvetica, sans-serif;font-size:12px;" xmlns="http://www.w3.org/2000/svg" width="1920" height="1080" viewBox="0 0 1920 1080"><desc>Created with Highcharts 7.1.2</desc><defs><clipPath id="highcharts-42fkwng-1191-"><rect x="0" y="0" width="1795" height="933" fill="none"></rect></clipPath></defs><rect fill="#ffffff" class="highcharts-background" x="0" y="0" width="1920" height="1080" rx="0" ry="0"></rect><rect fill="none" class="highcharts-plot-background" x="115" y="46" width="1795" height="933"></rect><g class="highcharts-pane-group" data-z-index="0"></g><g class="highcharts-grid highcharts-xaxis-grid" data-z-index="1"><path fill="none" stroke-dasharray="none" data-z-index="1" class="highcharts-grid-line" d="M 131.5 46 L 131.5 979" opacity="1"></path><path fill="none" stroke-dasharray="none" data-z-index="1" class="highcharts-grid-line" d="M 204.5 46 L 204.5 979" opacity="1"></path><path fill="none" stroke-dasharray="none" data-z-index="1" class="highcharts-grid-line" d="M 276.5 46 L 276.5 979" opacity="1"></path><path fill="none" stroke-dasharray="none" data-z-index="1" class="highcharts-grid-line" d="M 349.5 46 L 349.5 979" opacity="1"></path><path fill="none" stroke-dasharray="none" data-z-index="1" class="highcharts-grid-line" d="M 422.5 46 L 422.5 979" opacity="1"></path><path fill="none" stroke-dasharray="none" data-z-index="1" class="highcharts-grid-line" d="M 495.5 46 L 495.5 979" opacity="1"></path><path fill="none" stroke-dasharray="none" data-z-index="1" class="highcharts-grid-line" d="M 567.5 46 L 567.5 979" opacity="1"></path><path fill="none" stroke-dasharray="none" data-z-index="1" class="highcharts-grid-line" d="M 640.5 46 L 640.5 979" opacity="1"></path><path fill="none" stroke-dasharray="none" data-z-index="1" class="highcharts-grid-line" d="M 713.5 46 L 713.5 979" opacity="1"></path><path fill="none" stroke-dasharray="none" data-z-index="1" class="highcharts-grid-line" d="M 785.5 46 L 785.5 979" opacity="1"></path><path fill="none" stroke-dasharray="none" data-z-index="1" class="highcharts-grid-line" d="M 858.5 46 L 858.5 979" opacity="1"></path><path fill="none" stroke-dasharray="none" data-z-index="1" class="highcharts-grid-line" d="M 931.5 46 L 931.5 979" opacity="1"></path><path fill="none" stroke-dasharray="none" data-z-index="1" class="highcharts-grid-line" d="M 1004.5 46 L 1004.5 979" opacity="1"></path><path fill="none" stroke-dasharray="none" data-z-index="1" class="highcharts-grid-line" d="M 1076.5 46 L 1076.5 979" opacity="1"></path><path fill="none" stroke-dasharray="none" data-z-index="1" class="highcharts-grid-line" d="M 1149.5 46 L 1149.5 979" opacity="1"></path><path fill="none" stroke-dasharray="none" data-z-index="1" class="highcharts-grid-line" d="M 1222.5 46 L 1222.5 979" opacity="1"></path><path fill="none" stroke-dasharray="none" data-z-index="1" class="highcharts-grid-line" d="M 1294.5 46 L 1294.5 979" opacity="1"></path><path fill="none" stroke-dasharray="none" data-z-index="1" class="highcharts-grid-line" d="M 1367.5 46 L 1367.5 979" opacity="1"></path><path fill="none" stroke-dasharray="none" data-z-index="1" class="highcharts-grid-line" d="M 1440.5 46 L 1440.5 979" opacity="1"></path><path fill="none" stroke-dasharray="none" data-z-index="1" class="highcharts-grid-line" d="M 1513.5 46 L 1513.5 979" opacity="1"></path><path fill="none" stroke-dasharray="none" data-z-index="1" class="highcharts-grid-line" d="M 1585.5 46 L 1585.5 979" opacity="1"></path><path fill="none" stroke-dasharray="none" data-z-index="1" class="highcharts-grid-line" d="M 1658.5 46 L 1658.5 979" opacity="1"></path><path fill="none" stroke-dasharray="none" data-z-index="1" class="highcharts-grid-line" d="M 1731.5 46 L 1731.5 979" opacity="1"></path><path fill="none" stroke-dasharray="none" data-z-index="1" class="highcharts-grid-line" d="M 1804.5 46 L 1804.5 979" opacity="1"></path><path fill="none" stroke-dasharray="none" data-z-index="1" class="highcharts-grid-line" d="M 1876.5 46 L 1876.5 979" opacity="1"></path></g><g class="highcharts-grid highcharts-yaxis-grid" data-z-index="1"><path fill="none" stroke="#e6e6e6" stroke-width="1" stroke-dasharray="none" data-z-index="1" class="highcharts-grid-line" d="M 115 935.5 L 1910 935.5" opacity="1"></path><path fill="none" stroke="#e6e6e6" stroke-width="1" stroke-dasharray="none" data-z-index="1" class="highcharts-grid-line" d="M 115 890.5 L 1910 890.5" opacity="1"></path><path fill="none" stroke="#e6e6e6" stroke-width="1" stroke-dasharray="none" data-z-index="1" class="highcharts-grid-line" d="M 115 846.5 L 1910 846.5" opacity="1"></path><path fill="none" stroke="#e6e6e6" stroke-width="1" stroke-dasharray="none" data-z-index="1" class="highcharts-grid-line" d="M 115 801.5 L 1910 801.5" opacity="1"></path><path fill="none" stroke="#e6e6e6" stroke-width="1" stroke-dasharray="none" data-z-index="1" class="highcharts-grid-line" d="M 115 757.5 L 1910 757.5" opacity="1"></path><path fill="none" stroke="#e6e6e6" stroke-width="1" stroke-dasharray="none" data-z-index="1" class="highcharts-grid-line" d="M 115 712.5 L 1910 712.5" opacity="1"></path><path fill="none" stroke="#e6e6e6" stroke-width="1" stroke-dasharray="none" data-z-index="1" class="highcharts-grid-line" d="M 115 668.5 L 1910 668.5" opacity="1"></path><path fill="none" stroke="#e6e6e6" stroke-width="1" stroke-dasharray="none" data-z-index="1" class="highcharts-grid-line" d="M 115 624.5 L 1910 624.5" opacity="1"></path><path fill="none" stroke="#e6e6e6" stroke-width="1" stroke-dasharray="none" data-z-index="1" class="highcharts-grid-line" d="M 115 579.5 L 1910 579.5" opacity="1"></path><path fill="none" stroke="#e6e6e6" stroke-width="1" stroke-dasharray="none" data-z-index="1" class="highcharts-grid-line" d="M 115 535.5 L 1910 535.5" opacity="1"></path><path fill="none" stroke="#e6e6e6" stroke-width="1" stroke-dasharray="none" data-z-index="1" class="highcharts-grid-line" d="M 115 490.5 L 1910 490.5" opacity="1"></path><path fill="none" stroke="#e6e6e6" stroke-width="1" stroke-dasharray="none" data-z-index="1" class="highcharts-grid-line" d="M 115 446.5 L 1910 446.5" opacity="1"></path><path fill="none" stroke="#e6e6e6" stroke-width="1" stroke-dasharray="none" data-z-index="1" class="highcharts-grid-line" d="M 115 401.5 L 1910 401.5" opacity="1"></path><path fill="none" stroke="#e6e6e6" stroke-width="1" stroke-dasharray="none" data-z-index="1" class="highcharts-grid-line" d="M 115 357.5 L 1910 357.5" opacity="1"></path><path fill="none" stroke="#e6e6e6" stroke-width="1" stroke-dasharray="none" data-z-index="1" class="highcharts-grid-line" d="M 115 313.5 L 1910 313.5" opacity="1"></path><path fill="none" stroke="#e6e6e6" stroke-width="1" stroke-dasharray="none" data-z-index="1" class="highcharts-grid-line" d="M 115 268.5 L 1910 268.5" opacity="1"></path><path fill="none" stroke="#e6e6e6" stroke-width="1" stroke-dasharray="none" data-z-index="1" class="highcharts-grid-line" d="M 115 224.5 L 1910 224.5" opacity="1"></path><path fill="none" stroke="#e6e6e6" stroke-width="1" stroke-dasharray="none" data-z-index="1" class="highcharts-grid-line" d="M 115 179.5 L 1910 179.5" opacity="1"></path><path fill="none" stroke="#e6e6e6" stroke-width="1" stroke-dasharray="none" data-z-index="1" class="highcharts-grid-line" d="M 115 135.5 L 1910 135.5" opacity="1"></path><path fill="none" stroke="#e6e6e6" stroke-width="1" stroke-dasharray="none" data-z-index="1" class="highcharts-grid-line" d="M 115 90.5 L 1910 90.5" opacity="1"></path><path fill="none" stroke="#e6e6e6" stroke-width="1" stroke-dasharray="none" data-z-index="1" class="highcharts-grid-line" d="M 115 45.5 L 1910 45.5" opacity="1"></path><path fill="none" stroke="#e6e6e6" stroke-width="1" stroke-dasharray="none" data-z-index="1" class="highcharts-grid-line" d="M 115 979.5 L 1910 979.5" opacity="1"></path></g><rect fill="none" class="highcharts-plot-border" data-z-index="1" x="115" y="46" width="1795" height="933"></rect><g class="highcharts-axis highcharts-xaxis" data-z-index="2"><path fill="none" class="highcharts-tick" stroke="#ccd6eb" stroke-width="1" d="M 131.5 979 L 131.5 989" opacity="1"></path><path fill="none" class="highcharts-tick" stroke="#ccd6eb" stroke-width="1" d="M 204.5 979 L 204.5 989" opacity="1"></path><path fill="none" class="highcharts-tick" stroke="#ccd6eb" stroke-width="1" d="M 276.5 979 L 276.5 989" opacity="1"></path><path fill="none" class="highcharts-tick" stroke="#ccd6eb" stroke-width="1" d="M 349.5 979 L 349.5 989" opacity="1"></path><path fill="none" class="highcharts-tick" stroke="#ccd6eb" stroke-width="1" d="M 422.5 979 L 422.5 989" opacity="1"></path><path fill="none" class="highcharts-tick" stroke="#ccd6eb" stroke-width="1" d="M 495.5 979 L 495.5 989" opacity="1"></path><path fill="none" class="highcharts-tick" stroke="#ccd6eb" stroke-width="1" d="M 567.5 979 L 567.5 989" opacity="1"></path><path fill="none" class="highcharts-tick" stroke="#ccd6eb" stroke-width="1" d="M 640.5 979 L 640.5 989" opacity="1"></path><path fill="none" class="highcharts-tick" stroke="#ccd6eb" stroke-width="1" d="M 713.5 979 L 713.5 989" opacity="1"></path><path fill="none" class="highcharts-tick" stroke="#ccd6eb" stroke-width="1" d="M 785.5 979 L 785.5 989" opacity="1"></path><path fill="none" class="highcharts-tick" stroke="#ccd6eb" stroke-width="1" d="M 858.5 979 L 858.5 989" opacity="1"></path><path fill="none" class="highcharts-tick" stroke="#ccd6eb" stroke-width="1" d="M 931.5 979 L 931.5 989" opacity="1"></path><path fill="none" class="highcharts-tick" stroke="#ccd6eb" stroke-width="1" d="M 1004.5 979 L 1004.5 989" opacity="1"></path><path fill="none" class="highcharts-tick" stroke="#ccd6eb" stroke-width="1" d="M 1076.5 979 L 1076.5 989" opacity="1"></path><path fill="none" class="highcharts-tick" stroke="#ccd6eb" stroke-width="1" d="M 1149.5 979 L 1149.5 989" opacity="1"></path><path fill="none" class="highcharts-tick" stroke="#ccd6eb" stroke-width="1" d="M 1222.5 979 L 1222.5 989" opacity="1"></path><path fill="none" class="highcharts-tick" stroke="#ccd6eb" stroke-width="1" d="M 1294.5 979 L 1294.5 989" opacity="1"></path><path fill="none" class="highcharts-tick" stroke="#ccd6eb" stroke-width="1" d="M 1367.5 979 L 1367.5 989" opacity="1"></path><path fill="none" class="highcharts-tick" stroke="#ccd6eb" stroke-width="1" d="M 1440.5 979 L 1440.5 989" opacity="1"></path><path fill="none" class="highcharts-tick" stroke="#ccd6eb" stroke-width="1" d="M 1513.5 979 L 1513.5 989" opacity="1"></path><path fill="none" class="highcharts-tick" stroke="#ccd6eb" stroke-width="1" d="M 1585.5 979 L 1585.5 989" opacity="1"></path><path fill="none" class="highcharts-tick" stroke="#ccd6eb" stroke-width="1" d="M 1658.5 979 L 1658.5 989" opacity="1"></path><path fill="none" class="highcharts-tick" stroke="#ccd6eb" stroke-width="1" d="M 1731.5 979 L 1731.5 989" opacity="1"></path><path fill="none" class="highcharts-tick" stroke="#ccd6eb" stroke-width="1" d="M 1804.5 979 L 1804.5 989" opacity="1"></path><path fill="none" class="highcharts-tick" stroke="#ccd6eb" stroke-width="1" d="M 1876.5 979 L 1876.5 989" opacity="1"></path><text x="1012.5" data-z-index="7" text-anchor="middle" transform="translate(0,0)" class="highcharts-axis-title" style="color:#666666;font-weight:normal;fill:#666666;" y="1018"><tspan>sum(Total Adjusted)</tspan></text><path fill="none" class="highcharts-axis-line" stroke="#ccd6eb" stroke-width="1" data-z-index="7" d="M 115 979.5 L 1910 979.5"></path></g><g class="highcharts-axis highcharts-yaxis" data-z-index="2"><text x="26.28125" data-z-index="7" text-anchor="middle" transform="translate(0,0) rotate(270 26.28125 512.5)" class="highcharts-axis-title" style="color:#666666;font-weight:normal;fill:#666666;" y="512.5"><tspan>Country</tspan></text><path fill="none" class="highcharts-axis-line" data-z-index="7" d="M 115 46 L 115 979"></path></g><g class="highcharts-series-group" data-z-index="3"><g data-z-index="0.1" class="highcharts-series highcharts-series-0 highcharts-scatter-series " transform="translate(115,46) scale(1 1)" clip-path="url(#highcharts-42fkwng-1191-)"></g><g data-z-index="0.1" class="highcharts-markers highcharts-series-0 highcharts-scatter-series " transform="translate(115,46) scale(1 1)" clip-path="none"><path fill="#7cb5ec" d="M 17 337 A 4 4 0 1 1 17.003999999333335 336.9999980000002 Z" opacity="1" class="highcharts-point"></path><path fill="#7cb5ec" d="M 19 693 A 4 4 0 1 1 19.003999999333335 692.9999980000001 Z" opacity="1" class="highcharts-point"></path><path fill="#7cb5ec" d="M 21 337 A 4 4 0 1 1 21.003999999333335 336.9999980000002 Z" opacity="1" class="highcharts-point"></path><path fill="#7cb5ec" d="M 21 382 A 4 4 0 1 1 21.003999999333335 381.9999980000002 Z" opacity="1" class="highcharts-point"></path><path fill="#7cb5ec" d="M 23 382 A 4 4 0 1 1 23.003999999333335 381.9999980000002 Z" opacity="1" class="highcharts-point"></path><path fill="#7cb5ec" d="M 25 382 A 4 4 0 1 1 25.003999999333335 381.9999980000002 Z" opacity="1" class="highcharts-point"></path><path fill="#7cb5ec" d="M 25 337 A 4 4 0 1 1 25.003999999333335 336.9999980000002 Z" opacity="1" class="highcharts-point"></path><path fill="#7cb5ec" d="M 28 915 A 4 4 0 1 1 28.003999999333335 914.9999980000001 Z" opacity="1" class="highcharts-point"></path><path fill="#7cb5ec" d="M 32 426 A 4 4 0 1 1 32.00399999933334 425.9999980000002 Z" opacity="1" class="highcharts-point"></path><path fill="#7cb5ec" d="M 33 382 A 4 4 0 1 1 33.00399999933334 381.9999980000002 Z" opacity="1" class="highcharts-point"></path><path fill="#7cb5ec" d="M 34 915 A 4 4 0 1 1 34.00399999933334 914.9999980000001 Z" opacity="1" class="highcharts-point"></path><path fill="#7cb5ec" d="M 35 337 A 4 4 0 1 1 35.00399999933334 336.9999980000002 Z" opacity="1" class="highcharts-point"></path><path fill="#7cb5ec" d="M 35 293 A 4 4 0 1 1 35.00399999933334 292.9999980000002 Z" opacity="1" class="highcharts-point"></path><path fill="#7cb5ec" d="M 35 248 A 4 4 0 1 1 35.00399999933334 247.99999800000018 Z" opacity="1" class="highcharts-point"></path><path fill="#7cb5ec" d="M 35 293 A 4 4 0 1 1 35.00399999933334 292.9999980000002 Z" opacity="1" class="highcharts-point"></path><path fill="#7cb5ec" d="M 39 337 A 4 4 0 1 1 39.00399999933334 336.9999980000002 Z" opacity="1" class="highcharts-point"></path><path fill="#7cb5ec" d="M 39 382 A 4 4 0 1 1 39.00399999933334 381.9999980000002 Z" opacity="1" class="highcharts-point"></path><path fill="#7cb5ec" d="M 40 337 A 4 4 0 1 1 40.00399999933334 336.9999980000002 Z" opacity="1" class="highcharts-point"></path><path fill="#7cb5ec" d="M 41 337 A 4 4 0 1 1 41.00399999933334 336.9999980000002 Z" opacity="1" class="highcharts-point"></path><path fill="#7cb5ec" d="M 43 915 A 4 4 0 1 1 43.00399999933334 914.9999980000001 Z" opacity="1" class="highcharts-point"></path><path fill="#7cb5ec" d="M 44 382 A 4 4 0 1 1 44.00399999933334 381.9999980000002 Z" opacity="1" class="highcharts-point"></path><path fill="#7cb5ec" d="M 44 293 A 4 4 0 1 1 44.00399999933334 292.9999980000002 Z" opacity="1" class="highcharts-point"></path><path fill="#7cb5ec" d="M 45 293 A 4 4 0 1 1 45.00399999933334 292.9999980000002 Z" opacity="1" class="highcharts-point"></path><path fill="#7cb5ec" d="M 46 470 A 4 4 0 1 1 46.00399999933334 469.9999980000002 Z" opacity="1" class="highcharts-point"></path><path fill="#7cb5ec" d="M 46 648 A 4 4 0 1 1 46.00399999933334 647.9999980000001 Z" opacity="1" class="highcharts-point"></path><path fill="#7cb5ec" d="M 47 293 A 4 4 0 1 1 47.00399999933334 292.9999980000002 Z" opacity="1" class="highcharts-point"></path><path fill="#7cb5ec" d="M 47 470 A 4 4 0 1 1 47.00399999933334 469.9999980000002 Z" opacity="1" class="highcharts-point"></path><path fill="#7cb5ec" d="M 49 648 A 4 4 0 1 1 49.00399999933334 647.9999980000001 Z" opacity="1" class="highcharts-point"></path><path fill="#7cb5ec" d="M 50 915 A 4 4 0 1 1 50.00399999933334 914.9999980000001 Z" opacity="1" class="highcharts-point"></path><path fill="#7cb5ec" d="M 50 915 A 4 4 0 1 1 50.00399999933334 914.9999980000001 Z" opacity="1" class="highcharts-point"></path><path fill="#7cb5ec" d="M 52 826 A 4 4 0 1 1 52.00399999933334 825.9999980000001 Z" opacity="1" class="highcharts-point"></path><path fill="#7cb5ec" d="M 52 426 A 4 4 0 1 1 52.00399999933334 425.9999980000002 Z" opacity="1" class="highcharts-point"></path><path fill="#7cb5ec" d="M 53 648 A 4 4 0 1 1 53.00399999933334 647.9999980000001 Z" opacity="1" class="highcharts-point"></path><path fill="#7cb5ec" d="M 55 293 A 4 4 0 1 1 55.00399999933334 292.9999980000002 Z" opacity="1" class="highcharts-point"></path><path fill="#7cb5ec" d="M 56 248 A 4 4 0 1 1 56.00399999933334 247.99999800000018 Z" opacity="1" class="highcharts-point"></path><path fill="#7cb5ec" d="M 57 470 A 4 4 0 1 1 57.00399999933334 469.9999980000002 Z" opacity="1" class="highcharts-point"></path><path fill="#7cb5ec" d="M 58 515 A 4 4 0 1 1 58.00399999933334 514.9999980000001 Z" opacity="1" class="highcharts-point"></path><path fill="#7cb5ec" d="M 65 515 A 4 4 0 1 1 65.00399999933333 514.9999980000001 Z" opacity="1" class="highcharts-point"></path><path fill="#7cb5ec" d="M 66 248 A 4 4 0 1 1 66.00399999933333 247.99999800000018 Z" opacity="1" class="highcharts-point"></path><path fill="#7cb5ec" d="M 67 470 A 4 4 0 1 1 67.00399999933333 469.9999980000002 Z" opacity="1" class="highcharts-point"></path><path fill="#7cb5ec" d="M 67 248 A 4 4 0 1 1 67.00399999933333 247.99999800000018 Z" opacity="1" class="highcharts-point"></path><path fill="#7cb5ec" d="M 67 470 A 4 4 0 1 1 67.00399999933333 469.9999980000002 Z" opacity="1" class="highcharts-point"></path><path fill="#7cb5ec" d="M 68 248 A 4 4 0 1 1 68.00399999933333 247.99999800000018 Z" opacity="1" class="highcharts-point"></path><path fill="#7cb5ec" d="M 69 248 A 4 4 0 1 1 69.00399999933333 247.99999800000018 Z" opacity="1" class="highcharts-point"></path><path fill="#7cb5ec" d="M 69 915 A 4 4 0 1 1 69.00399999933333 914.9999980000001 Z" opacity="1" class="highcharts-point"></path><path fill="#7cb5ec" d="M 70 426 A 4 4 0 1 1 70.00399999933333 425.9999980000002 Z" opacity="1" class="highcharts-point"></path><path fill="#7cb5ec" d="M 71 648 A 4 4 0 1 1 71.00399999933333 647.9999980000001 Z" opacity="1" class="highcharts-point"></path><path fill="#7cb5ec" d="M 72 426 A 4 4 0 1 1 72.00399999933333 425.9999980000002 Z" opacity="1" class="highcharts-point"></path><path fill="#7cb5ec" d="M 73 26 A 4 4 0 1 1 73.00399999933333 25.99999800000017 Z" opacity="1" class="highcharts-point"></path><path fill="#7cb5ec" d="M 76 159 A 4 4 0 1 1 76.00399999933333 158.99999800000018 Z" opacity="1" class="highcharts-point"></path><path fill="#7cb5ec" d="M 78 737 A 4 4 0 1 1 78.00399999933333 736.9999980000001 Z" opacity="1" class="highcharts-point"></path><path fill="#7cb5ec" d="M 78 248 A 4 4 0 1 1 78.00399999933333 247.99999800000018 Z" opacity="1" class="highcharts-point"></path><path fill="#7cb5ec" d="M 78 159 A 4 4 0 1 1 78.00399999933333 158.99999800000018 Z" opacity="1" class="highcharts-point"></path><path fill="#7cb5ec" d="M 79 915 A 4 4 0 1 1 79.00399999933333 914.9999980000001 Z" opacity="1" class="highcharts-point"></path><path fill="#7cb5ec" d="M 79 826 A 4 4 0 1 1 79.00399999933333 825.9999980000001 Z" opacity="1" class="highcharts-point"></path><path fill="#7cb5ec" d="M 79 159 A 4 4 0 1 1 79.00399999933333 158.99999800000018 Z" opacity="1" class="highcharts-point"></path><path fill="#7cb5ec" d="M 79 293 A 4 4 0 1 1 79.00399999933333 292.9999980000002 Z" opacity="1" class="highcharts-point"></path><path fill="#7cb5ec" d="M 80 648 A 4 4 0 1 1 80.00399999933333 647.9999980000001 Z" opacity="1" class="highcharts-point"></path><path fill="#7cb5ec" d="M 80 470 A 4 4 0 1 1 80.00399999933333 469.9999980000002 Z" opacity="1" class="highcharts-point"></path><path fill="#7cb5ec" d="M 88 826 A 4 4 0 1 1 88.00399999933333 825.9999980000001 Z" opacity="1" class="highcharts-point"></path><path fill="#7cb5ec" d="M 88 648 A 4 4 0 1 1 88.00399999933333 647.9999980000001 Z" opacity="1" class="highcharts-point"></path><path fill="#7cb5ec" d="M 90 426 A 4 4 0 1 1 90.00399999933333 425.9999980000002 Z" opacity="1" class="highcharts-point"></path><path fill="#7cb5ec" d="M 92 693 A 4 4 0 1 1 92.00399999933333 692.9999980000001 Z" opacity="1" class="highcharts-point"></path><path fill="#7cb5ec" d="M 93 693 A 4 4 0 1 1 93.00399999933333 692.9999980000001 Z" opacity="1" class="highcharts-point"></path><path fill="#7cb5ec" d="M 94 470 A 4 4 0 1 1 94.00399999933333 469.9999980000002 Z" opacity="1" class="highcharts-point"></path><path fill="#7cb5ec" d="M 97 382 A 4 4 0 1 1 97.00399999933333 381.9999980000002 Z" opacity="1" class="highcharts-point"></path><path fill="#7cb5ec" d="M 99 426 A 4 4 0 1 1 99.00399999933333 425.9999980000002 Z" opacity="1" class="highcharts-point"></path><path fill="#7cb5ec" d="M 106 159 A 4 4 0 1 1 106.00399999933333 158.99999800000018 Z" opacity="1" class="highcharts-point"></path><path fill="#7cb5ec" d="M 106 159 A 4 4 0 1 1 106.00399999933333 158.99999800000018 Z" opacity="1" class="highcharts-point"></path><path fill="#7cb5ec" d="M 108 515 A 4 4 0 1 1 108.00399999933333 514.9999980000001 Z" opacity="1" class="highcharts-point"></path><path fill="#7cb5ec" d="M 108 693 A 4 4 0 1 1 108.00399999933333 692.9999980000001 Z" opacity="1" class="highcharts-point"></path><path fill="#7cb5ec" d="M 109 204 A 4 4 0 1 1 109.00399999933333 203.99999800000018 Z" opacity="1" class="highcharts-point"></path><path fill="#7cb5ec" d="M 110 826 A 4 4 0 1 1 110.00399999933333 825.9999980000001 Z" opacity="1" class="highcharts-point"></path><path fill="#7cb5ec" d="M 110 826 A 4 4 0 1 1 110.00399999933333 825.9999980000001 Z" opacity="1" class="highcharts-point"></path><path fill="#7cb5ec" d="M 114 648 A 4 4 0 1 1 114.00399999933333 647.9999980000001 Z" opacity="1" class="highcharts-point"></path><path fill="#7cb5ec" d="M 116 515 A 4 4 0 1 1 116.00399999933333 514.9999980000001 Z" opacity="1" class="highcharts-point"></path><path fill="#7cb5ec" d="M 118 515 A 4 4 0 1 1 118.00399999933333 514.9999980000001 Z" opacity="1" class="highcharts-point"></path><path fill="#7cb5ec" d="M 123 26 A 4 4 0 1 1 123.00399999933333 25.99999800000017 Z" opacity="1" class="highcharts-point"></path><path fill="#7cb5ec" d="M 124 293 A 4 4 0 1 1 124.00399999933333 292.9999980000002 Z" opacity="1" class="highcharts-point"></path><path fill="#7cb5ec" d="M 126 737 A 4 4 0 1 1 126.00399999933333 736.9999980000001 Z" opacity="1" class="highcharts-point"></path><path fill="#7cb5ec" d="M 129 693 A 4 4 0 1 1 129.00399999933333 692.9999980000001 Z" opacity="1" class="highcharts-point"></path><path fill="#7cb5ec" d="M 131 693 A 4 4 0 1 1 131.00399999933333 692.9999980000001 Z" opacity="1" class="highcharts-point"></path><path fill="#7cb5ec" d="M 133 470 A 4 4 0 1 1 133.00399999933333 469.9999980000002 Z" opacity="1" class="highcharts-point"></path><path fill="#7cb5ec" d="M 138 26 A 4 4 0 1 1 138.00399999933333 25.99999800000017 Z" opacity="1" class="highcharts-point"></path><path fill="#7cb5ec" d="M 142 737 A 4 4 0 1 1 142.00399999933333 736.9999980000001 Z" opacity="1" class="highcharts-point"></path><path fill="#7cb5ec" d="M 142 693 A 4 4 0 1 1 142.00399999933333 692.9999980000001 Z" opacity="1" class="highcharts-point"></path><path fill="#7cb5ec" d="M 145 115 A 4 4 0 1 1 145.00399999933333 114.99999800000016 Z" opacity="1" class="highcharts-point"></path><path fill="#7cb5ec" d="M 154 204 A 4 4 0 1 1 154.00399999933333 203.99999800000018 Z" opacity="1" class="highcharts-point"></path><path fill="#7cb5ec" d="M 154 426 A 4 4 0 1 1 154.00399999933333 425.9999980000002 Z" opacity="1" class="highcharts-point"></path><path fill="#7cb5ec" d="M 155 737 A 4 4 0 1 1 155.00399999933333 736.9999980000001 Z" opacity="1" class="highcharts-point"></path><path fill="#7cb5ec" d="M 156 115 A 4 4 0 1 1 156.00399999933333 114.99999800000016 Z" opacity="1" class="highcharts-point"></path><path fill="#7cb5ec" d="M 158 159 A 4 4 0 1 1 158.00399999933333 158.99999800000018 Z" opacity="1" class="highcharts-point"></path><path fill="#7cb5ec" d="M 158 782 A 4 4 0 1 1 158.00399999933333 781.9999980000001 Z" opacity="1" class="highcharts-point"></path></g><g data-z-index="0.1" class="highcharts-series highcharts-series-1 highcharts-scatter-series " transform="translate(115,46) scale(1 1)" clip-path="url(#highcharts-42fkwng-1191-)"></g><g data-z-index="0.1" class="highcharts-markers highcharts-series-1 highcharts-scatter-series " transform="translate(115,46) scale(1 1)" clip-path="none"><path fill="#90ed7d" d="M 389 604 A 4 4 0 1 1 389.00399999933336 603.9999980000001 Z" opacity="1" class="highcharts-point"></path><path fill="#90ed7d" d="M 391 782 A 4 4 0 1 1 391.00399999933336 781.9999980000001 Z" opacity="1" class="highcharts-point"></path><path fill="#90ed7d" d="M 395 604 A 4 4 0 1 1 395.00399999933336 603.9999980000001 Z" opacity="1" class="highcharts-point"></path><path fill="#90ed7d" d="M 398 870 A 4 4 0 1 1 398.00399999933336 869.9999980000001 Z" opacity="1" class="highcharts-point"></path><path fill="#90ed7d" d="M 410 870 A 4 4 0 1 1 410.00399999933336 869.9999980000001 Z" opacity="1" class="highcharts-point"></path><path fill="#90ed7d" d="M 413 559 A 4 4 0 1 1 413.00399999933336 558.9999980000001 Z" opacity="1" class="highcharts-point"></path><path fill="#90ed7d" d="M 428 115 A 4 4 0 1 1 428.00399999933336 114.99999800000016 Z" opacity="1" class="highcharts-point"></path><path fill="#90ed7d" d="M 439 870 A 4 4 0 1 1 439.00399999933336 869.9999980000001 Z" opacity="1" class="highcharts-point"></path><path fill="#90ed7d" d="M 458 604 A 4 4 0 1 1 458.00399999933336 603.9999980000001 Z" opacity="1" class="highcharts-point"></path><path fill="#90ed7d" d="M 460 870 A 4 4 0 1 1 460.00399999933336 869.9999980000001 Z" opacity="1" class="highcharts-point"></path><path fill="#90ed7d" d="M 473 782 A 4 4 0 1 1 473.00399999933336 781.9999980000001 Z" opacity="1" class="highcharts-point"></path><path fill="#90ed7d" d="M 482 559 A 4 4 0 1 1 482.00399999933336 558.9999980000001 Z" opacity="1" class="highcharts-point"></path><path fill="#90ed7d" d="M 499 71 A 4 4 0 1 1 499.00399999933336 70.99999800000016 Z" opacity="1" class="highcharts-point"></path><path fill="#90ed7d" d="M 503 559 A 4 4 0 1 1 503.00399999933336 558.9999980000001 Z" opacity="1" class="highcharts-point"></path><path fill="#90ed7d" d="M 533 26 A 4 4 0 1 1 533.0039999993334 25.99999800000017 Z" opacity="1" class="highcharts-point"></path><path fill="#90ed7d" d="M 578 71 A 4 4 0 1 1 578.0039999993334 70.99999800000016 Z" opacity="1" class="highcharts-point"></path><path fill="#90ed7d" d="M 625 515 A 4 4 0 1 1 625.0039999993334 514.9999980000001 Z" opacity="1" class="highcharts-point"></path><path fill="#90ed7d" d="M 641 559 A 4 4 0 1 1 641.0039999993334 558.9999980000001 Z" opacity="1" class="highcharts-point"></path><path fill="#90ed7d" d="M 665 559 A 4 4 0 1 1 665.0039999993334 558.9999980000001 Z" opacity="1" class="highcharts-point"></path><path fill="#90ed7d" d="M 695 870 A 4 4 0 1 1 695.0039999993334 869.9999980000001 Z" opacity="1" class="highcharts-point"></path><path fill="#90ed7d" d="M 700 71 A 4 4 0 1 1 700.0039999993334 70.99999800000016 Z" opacity="1" class="highcharts-point"></path></g><g data-z-index="0.1" class="highcharts-series highcharts-series-2 highcharts-scatter-series " transform="translate(115,46) scale(1 1)" clip-path="url(#highcharts-42fkwng-1191-)"></g><g data-z-index="0.1" class="highcharts-markers highcharts-series-2 highcharts-scatter-series " transform="translate(115,46) scale(1 1)" clip-path="none"><path fill="#f7a35c" d="M 167 204 A 4 4 0 1 1 167.00399999933333 203.99999800000018 Z" opacity="1" class="highcharts-point"></path><path fill="#f7a35c" d="M 167 115 A 4 4 0 1 1 167.00399999933333 114.99999800000016 Z" opacity="1" class="highcharts-point"></path><path fill="#f7a35c" d="M 174 826 A 4 4 0 1 1 174.00399999933333 825.9999980000001 Z" opacity="1" class="highcharts-point"></path><path fill="#f7a35c" d="M 177 26 A 4 4 0 1 1 177.00399999933333 25.99999800000017 Z" opacity="1" class="highcharts-point"></path><path fill="#f7a35c" d="M 178 737 A 4 4 0 1 1 178.00399999933333 736.9999980000001 Z" opacity="1" class="highcharts-point"></path><path fill="#f7a35c" d="M 178 648 A 4 4 0 1 1 178.00399999933333 647.9999980000001 Z" opacity="1" class="highcharts-point"></path><path fill="#f7a35c" d="M 187 604 A 4 4 0 1 1 187.00399999933333 603.9999980000001 Z" opacity="1" class="highcharts-point"></path><path fill="#f7a35c" d="M 195 782 A 4 4 0 1 1 195.00399999933333 781.9999980000001 Z" opacity="1" class="highcharts-point"></path><path fill="#f7a35c" d="M 198 204 A 4 4 0 1 1 198.00399999933333 203.99999800000018 Z" opacity="1" class="highcharts-point"></path><path fill="#f7a35c" d="M 201 115 A 4 4 0 1 1 201.00399999933333 114.99999800000016 Z" opacity="1" class="highcharts-point"></path><path fill="#f7a35c" d="M 202 204 A 4 4 0 1 1 202.00399999933333 203.99999800000018 Z" opacity="1" class="highcharts-point"></path><path fill="#f7a35c" d="M 205 604 A 4 4 0 1 1 205.00399999933333 603.9999980000001 Z" opacity="1" class="highcharts-point"></path><path fill="#f7a35c" d="M 213 26 A 4 4 0 1 1 213.00399999933333 25.99999800000017 Z" opacity="1" class="highcharts-point"></path><path fill="#f7a35c" d="M 216 159 A 4 4 0 1 1 216.00399999933333 158.99999800000018 Z" opacity="1" class="highcharts-point"></path><path fill="#f7a35c" d="M 216 248 A 4 4 0 1 1 216.00399999933333 247.99999800000018 Z" opacity="1" class="highcharts-point"></path><path fill="#f7a35c" d="M 217 515 A 4 4 0 1 1 217.00399999933333 514.9999980000001 Z" opacity="1" class="highcharts-point"></path><path fill="#f7a35c" d="M 228 115 A 4 4 0 1 1 228.00399999933333 114.99999800000016 Z" opacity="1" class="highcharts-point"></path><path fill="#f7a35c" d="M 234 826 A 4 4 0 1 1 234.00399999933333 825.9999980000001 Z" opacity="1" class="highcharts-point"></path><path fill="#f7a35c" d="M 234 159 A 4 4 0 1 1 234.00399999933333 158.99999800000018 Z" opacity="1" class="highcharts-point"></path><path fill="#f7a35c" d="M 236 782 A 4 4 0 1 1 236.00399999933333 781.9999980000001 Z" opacity="1" class="highcharts-point"></path><path fill="#f7a35c" d="M 239 204 A 4 4 0 1 1 239.00399999933333 203.99999800000018 Z" opacity="1" class="highcharts-point"></path><path fill="#f7a35c" d="M 249 115 A 4 4 0 1 1 249.00399999933333 114.99999800000016 Z" opacity="1" class="highcharts-point"></path><path fill="#f7a35c" d="M 249 426 A 4 4 0 1 1 249.00399999933333 425.9999980000002 Z" opacity="1" class="highcharts-point"></path><path fill="#f7a35c" d="M 256 26 A 4 4 0 1 1 256.00399999933336 25.99999800000017 Z" opacity="1" class="highcharts-point"></path><path fill="#f7a35c" d="M 256 604 A 4 4 0 1 1 256.00399999933336 603.9999980000001 Z" opacity="1" class="highcharts-point"></path><path fill="#f7a35c" d="M 268 826 A 4 4 0 1 1 268.00399999933336 825.9999980000001 Z" opacity="1" class="highcharts-point"></path><path fill="#f7a35c" d="M 271 26 A 4 4 0 1 1 271.00399999933336 25.99999800000017 Z" opacity="1" class="highcharts-point"></path><path fill="#f7a35c" d="M 273 115 A 4 4 0 1 1 273.00399999933336 114.99999800000016 Z" opacity="1" class="highcharts-point"></path><path fill="#f7a35c" d="M 274 737 A 4 4 0 1 1 274.00399999933336 736.9999980000001 Z" opacity="1" class="highcharts-point"></path><path fill="#f7a35c" d="M 274 604 A 4 4 0 1 1 274.00399999933336 603.9999980000001 Z" opacity="1" class="highcharts-point"></path><path fill="#f7a35c" d="M 278 204 A 4 4 0 1 1 278.00399999933336 203.99999800000018 Z" opacity="1" class="highcharts-point"></path><path fill="#f7a35c" d="M 279 515 A 4 4 0 1 1 279.00399999933336 514.9999980000001 Z" opacity="1" class="highcharts-point"></path><path fill="#f7a35c" d="M 288 870 A 4 4 0 1 1 288.00399999933336 869.9999980000001 Z" opacity="1" class="highcharts-point"></path><path fill="#f7a35c" d="M 294 737 A 4 4 0 1 1 294.00399999933336 736.9999980000001 Z" opacity="1" class="highcharts-point"></path><path fill="#f7a35c" d="M 302 71 A 4 4 0 1 1 302.00399999933336 70.99999800000016 Z" opacity="1" class="highcharts-point"></path><path fill="#f7a35c" d="M 331 870 A 4 4 0 1 1 331.00399999933336 869.9999980000001 Z" opacity="1" class="highcharts-point"></path><path fill="#f7a35c" d="M 332 782 A 4 4 0 1 1 332.00399999933336 781.9999980000001 Z" opacity="1" class="highcharts-point"></path><path fill="#f7a35c" d="M 334 604 A 4 4 0 1 1 334.00399999933336 603.9999980000001 Z" opacity="1" class="highcharts-point"></path><path fill="#f7a35c" d="M 342 782 A 4 4 0 1 1 342.00399999933336 781.9999980000001 Z" opacity="1" class="highcharts-point"></path><path fill="#f7a35c" d="M 344 737 A 4 4 0 1 1 344.00399999933336 736.9999980000001 Z" opacity="1" class="highcharts-point"></path><path fill="#f7a35c" d="M 366 693 A 4 4 0 1 1 366.00399999933336 692.9999980000001 Z" opacity="1" class="highcharts-point"></path><path fill="#f7a35c" d="M 370 204 A 4 4 0 1 1 370.00399999933336 203.99999800000018 Z" opacity="1" class="highcharts-point"></path></g><g data-z-index="0.1" class="highcharts-series highcharts-series-3 highcharts-scatter-series " transform="translate(115,46) scale(1 1)" clip-path="url(#highcharts-42fkwng-1191-)"></g><g data-z-index="0.1" class="highcharts-markers highcharts-series-3 highcharts-scatter-series " transform="translate(115,46) scale(1 1)" clip-path="none"><path fill="#434348" d="M 834 870 A 4 4 0 1 1 834.0039999993334 869.9999980000001 Z" opacity="1" class="highcharts-point"></path><path fill="#434348" d="M 1060 559 A 4 4 0 1 1 1060.0039999993332 558.9999980000001 Z" opacity="1" class="highcharts-point"></path><path fill="#434348" d="M 1090 71 A 4 4 0 1 1 1090.0039999993332 70.99999800000016 Z" opacity="1" class="highcharts-point"></path><path fill="#434348" d="M 1098 782 A 4 4 0 1 1 1098.0039999993332 781.9999980000001 Z" opacity="1" class="highcharts-point"></path><path fill="#434348" d="M 1119 71 A 4 4 0 1 1 1119.0039999993332 70.99999800000016 Z" opacity="1" class="highcharts-point"></path><path fill="#434348" d="M 1228 71 A 4 4 0 1 1 1228.0039999993332 70.99999800000016 Z" opacity="1" class="highcharts-point"></path></g><g data-z-index="0.1" class="highcharts-series highcharts-series-4 highcharts-scatter-series " transform="translate(115,46) scale(1 1)" clip-path="url(#highcharts-42fkwng-1191-)"></g><g data-z-index="0.1" class="highcharts-markers highcharts-series-4 highcharts-scatter-series " transform="translate(115,46) scale(1 1)" clip-path="none"><path fill="#8085e9" d="M 1460 559 A 4 4 0 1 1 1460.0039999993332 558.9999980000001 Z" opacity="1" class="highcharts-point"></path><path fill="#8085e9" d="M 1606 559 A 4 4 0 1 1 1606.0039999993332 558.9999980000001 Z" opacity="1" class="highcharts-point"></path><path fill="#8085e9" d="M 1777 71 A 4 4 0 1 1 1777.0039999993332 70.99999800000016 Z" opacity="1" class="highcharts-point"></path></g></g><text x="960" text-anchor="middle" class="highcharts-title" data-z-index="4" style="color:#333333;font-size:14;font-weight:normal;fill:#333333;" y="21"><tspan>Scatter plot based on Country and Total Adjusted</tspan></text><text x="960" text-anchor="middle" class="highcharts-subtitle" data-z-index="4" style="color:#666666;fill:#666666;" y="45"></text><g class="highcharts-legend" data-z-index="7" transform="translate(719,1036)"><rect fill="none" class="highcharts-legend-box" rx="0" ry="0" x="0" y="0" width="481" height="29" visibility="visible"></rect><g data-z-index="1"><g><g class="highcharts-legend-item highcharts-scatter-series highcharts-color-undefined highcharts-series-0" data-z-index="1" transform="translate(8,3)"><path fill="none" d="M 0 11 L 16 11" class="highcharts-graph" stroke-dasharray="none"></path><path fill="#7cb5ec" d="M 8 15 A 4 4 0 1 1 8.003999999333336 14.999998000000167 Z" class="highcharts-point" opacity="1"></path><text x="21" style="color:#333333;cursor:pointer;font-size:12px;font-weight:bold;fill:#333333;" text-anchor="start" data-z-index="2" y="15"><tspan>cluster_4</tspan></text></g><g class="highcharts-legend-item highcharts-scatter-series highcharts-color-undefined highcharts-series-1" data-z-index="1" transform="translate(105.1875,3)"><path fill="none" d="M 0 11 L 16 11" class="highcharts-graph" stroke-dasharray="none"></path><path fill="#90ed7d" d="M 8 15 A 4 4 0 1 1 8.003999999333336 14.999998000000167 Z" class="highcharts-point" opacity="1"></path><text x="21" y="15" style="color:#333333;cursor:pointer;font-size:12px;font-weight:bold;fill:#333333;" text-anchor="start" data-z-index="2"><tspan>cluster_3</tspan></text></g><g class="highcharts-legend-item highcharts-scatter-series highcharts-color-undefined highcharts-series-2" data-z-index="1" transform="translate(202.375,3)"><path fill="none" d="M 0 11 L 16 11" class="highcharts-graph" stroke-dasharray="none"></path><path fill="#f7a35c" d="M 8 15 A 4 4 0 1 1 8.003999999333336 14.999998000000167 Z" class="highcharts-point" opacity="1"></path><text x="21" y="15" style="color:#333333;cursor:pointer;font-size:12px;font-weight:bold;fill:#333333;" text-anchor="start" data-z-index="2"><tspan>cluster_0</tspan></text></g><g class="highcharts-legend-item highcharts-scatter-series highcharts-color-undefined highcharts-series-3" data-z-index="1" transform="translate(299.5625,3)"><path fill="none" d="M 0 11 L 16 11" class="highcharts-graph" stroke-dasharray="none"></path><path fill="#434348" d="M 8 15 A 4 4 0 1 1 8.003999999333336 14.999998000000167 Z" class="highcharts-point" opacity="1"></path><text x="21" y="15" style="color:#333333;cursor:pointer;font-size:12px;font-weight:bold;fill:#333333;" text-anchor="start" data-z-index="2"><tspan>cluster_2</tspan></text></g><g class="highcharts-legend-item highcharts-scatter-series highcharts-color-undefined highcharts-series-4" data-z-index="1" transform="translate(396.75,3)"><path fill="none" d="M 0 11 L 16 11" class="highcharts-graph" stroke-dasharray="none"></path><path fill="#8085e9" d="M 8 15 A 4 4 0 1 1 8.003999999333336 14.999998000000167 Z" class="highcharts-point" opacity="1"></path><text x="21" y="15" style="color:#333333;cursor:pointer;font-size:12px;font-weight:bold;fill:#333333;" text-anchor="start" data-z-index="2"><tspan>cluster_1</tspan></text></g></g></g></g><g class="highcharts-axis-labels highcharts-xaxis-labels" data-z-index="7"><text x="131.94791505754" style="color:#666666;cursor:default;font-size:11px;font-weight:normal;fill:#666666;" text-anchor="middle" transform="translate(0,0)" y="998" opacity="1">0</text><text x="204.66873811627" style="color:#666666;cursor:default;font-size:11px;font-weight:normal;fill:#666666;" text-anchor="middle" transform="translate(0,0)" y="998" opacity="1">2.5k</text><text x="277.389561175" style="color:#666666;cursor:default;font-size:11px;font-weight:normal;fill:#666666;" text-anchor="middle" transform="translate(0,0)" y="998" opacity="1">5k</text><text x="350.11038423374" style="color:#666666;cursor:default;font-size:11px;font-weight:normal;fill:#666666;" text-anchor="middle" transform="translate(0,0)" y="998" opacity="1">7.5k</text><text x="422.83120729247" style="color:#666666;cursor:default;font-size:11px;font-weight:normal;fill:#666666;" text-anchor="middle" transform="translate(0,0)" y="998" opacity="1">10k</text><text x="495.5520303512" style="color:#666666;cursor:default;font-size:11px;font-weight:normal;fill:#666666;" text-anchor="middle" transform="translate(0,0)" y="998" opacity="1">12.5k</text><text x="568.27285340993" style="color:#666666;cursor:default;font-size:11px;font-weight:normal;fill:#666666;" text-anchor="middle" transform="translate(0,0)" y="998" opacity="1">15k</text><text x="640.99367646866" style="color:#666666;cursor:default;font-size:11px;font-weight:normal;fill:#666666;" text-anchor="middle" transform="translate(0,0)" y="998" opacity="1">17.5k</text><text x="713.7144995274" style="color:#666666;cursor:default;font-size:11px;font-weight:normal;fill:#666666;" text-anchor="middle" transform="translate(0,0)" y="998" opacity="1">20k</text><text x="786.43532258613" style="color:#666666;cursor:default;font-size:11px;font-weight:normal;fill:#666666;" text-anchor="middle" transform="translate(0,0)" y="998" opacity="1">22.5k</text><text x="859.15614564486" style="color:#666666;cursor:default;font-size:11px;font-weight:normal;fill:#666666;" text-anchor="middle" transform="translate(0,0)" y="998" opacity="1">25k</text><text x="931.87696870359" style="color:#666666;cursor:default;font-size:11px;font-weight:normal;fill:#666666;" text-anchor="middle" transform="translate(0,0)" y="998" opacity="1">27.5k</text><text x="1004.5977917623" style="color:#666666;cursor:default;font-size:11px;font-weight:normal;fill:#666666;" text-anchor="middle" transform="translate(0,0)" y="998" opacity="1">30k</text><text x="1077.3186148211" style="color:#666666;cursor:default;font-size:11px;font-weight:normal;fill:#666666;" text-anchor="middle" transform="translate(0,0)" y="998" opacity="1">32.5k</text><text x="1150.0394378798" style="color:#666666;cursor:default;font-size:11px;font-weight:normal;fill:#666666;" text-anchor="middle" transform="translate(0,0)" y="998" opacity="1">35k</text><text x="1222.7602609385" style="color:#666666;cursor:default;font-size:11px;font-weight:normal;fill:#666666;" text-anchor="middle" transform="translate(0,0)" y="998" opacity="1">37.5k</text><text x="1295.4810839973" style="color:#666666;cursor:default;font-size:11px;font-weight:normal;fill:#666666;" text-anchor="middle" transform="translate(0,0)" y="998" opacity="1">40k</text><text x="1368.201907056" style="color:#666666;cursor:default;font-size:11px;font-weight:normal;fill:#666666;" text-anchor="middle" transform="translate(0,0)" y="998" opacity="1">42.5k</text><text x="1440.9227301147" style="color:#666666;cursor:default;font-size:11px;font-weight:normal;fill:#666666;" text-anchor="middle" transform="translate(0,0)" y="998" opacity="1">45k</text><text x="1513.6435531734" style="color:#666666;cursor:default;font-size:11px;font-weight:normal;fill:#666666;" text-anchor="middle" transform="translate(0,0)" y="998" opacity="1">47.5k</text><text x="1586.3643762322" style="color:#666666;cursor:default;font-size:11px;font-weight:normal;fill:#666666;" text-anchor="middle" transform="translate(0,0)" y="998" opacity="1">50k</text><text x="1659.0851992909" style="color:#666666;cursor:default;font-size:11px;font-weight:normal;fill:#666666;" text-anchor="middle" transform="translate(0,0)" y="998" opacity="1">52.5k</text><text x="1731.8060223496" style="color:#666666;cursor:default;font-size:11px;font-weight:normal;fill:#666666;" text-anchor="middle" transform="translate(0,0)" y="998" opacity="1">55k</text><text x="1804.5268454084" style="color:#666666;cursor:default;font-size:11px;font-weight:normal;fill:#666666;" text-anchor="middle" transform="translate(0,0)" y="998" opacity="1">57.5k</text><text x="1877.2476684671" style="color:#666666;cursor:default;font-size:11px;font-weight:normal;fill:#666666;" text-anchor="middle" transform="translate(0,0)" y="998" opacity="1">60k</text></g><g class="highcharts-axis-labels highcharts-yaxis-labels" data-z-index="7"><text x="100" style="color:#666666;cursor:default;font-size:11px;font-weight:normal;fill:#666666;" text-anchor="end" transform="translate(0,0)" y="961" opacity="1">Argentina</text><text x="100" style="color:#666666;cursor:default;font-size:11px;font-weight:normal;fill:#666666;" text-anchor="end" transform="translate(0,0)" y="916" opacity="1">Austria</text><text x="100" style="color:#666666;cursor:default;font-size:11px;font-weight:normal;fill:#666666;" text-anchor="end" transform="translate(0,0)" y="872" opacity="1">Belgium</text><text x="100" style="color:#666666;cursor:default;font-size:11px;font-weight:normal;fill:#666666;" text-anchor="end" transform="translate(0,0)" y="827" opacity="1">Brazil</text><text x="100" style="color:#666666;cursor:default;font-size:11px;font-weight:normal;fill:#666666;" text-anchor="end" transform="translate(0,0)" y="783" opacity="1">Canada</text><text x="100" style="color:#666666;cursor:default;font-size:11px;font-weight:normal;fill:#666666;" text-anchor="end" transform="translate(0,0)" y="739" opacity="1">Denmark</text><text x="100" style="color:#666666;cursor:default;font-size:11px;font-weight:normal;fill:#666666;" text-anchor="end" transform="translate(0,0)" y="694" opacity="1">Finland</text><text x="100" style="color:#666666;cursor:default;font-size:11px;font-weight:normal;fill:#666666;" text-anchor="end" transform="translate(0,0)" y="650" opacity="1">France</text><text x="100" style="color:#666666;cursor:default;font-size:11px;font-weight:normal;fill:#666666;" text-anchor="end" transform="translate(0,0)" y="605" opacity="1">Germany</text><text x="100" style="color:#666666;cursor:default;font-size:11px;font-weight:normal;fill:#666666;" text-anchor="end" transform="translate(0,0)" y="561" opacity="1">Ireland</text><text x="100" style="color:#666666;cursor:default;font-size:11px;font-weight:normal;fill:#666666;" text-anchor="end" transform="translate(0,0)" y="516" opacity="1">Italy</text><text x="100" style="color:#666666;cursor:default;font-size:11px;font-weight:normal;fill:#666666;" text-anchor="end" transform="translate(0,0)" y="472" opacity="1">Mexico</text><text x="100" style="color:#666666;cursor:default;font-size:11px;font-weight:normal;fill:#666666;" text-anchor="end" transform="translate(0,0)" y="428" opacity="1">Norway</text><text x="100" style="color:#666666;cursor:default;font-size:11px;font-weight:normal;fill:#666666;" text-anchor="end" transform="translate(0,0)" y="383" opacity="1">Poland</text><text x="100" style="color:#666666;cursor:default;font-size:11px;font-weight:normal;fill:#666666;" text-anchor="end" transform="translate(0,0)" y="339" opacity="1">Portugal</text><text x="100" style="color:#666666;cursor:default;font-size:11px;font-weight:normal;fill:#666666;" text-anchor="end" transform="translate(0,0)" y="294" opacity="1">Spain</text><text x="100" style="color:#666666;cursor:default;font-size:11px;font-weight:normal;fill:#666666;" text-anchor="end" transform="translate(0,0)" y="250" opacity="1">Sweden</text><text x="100" style="color:#666666;cursor:default;font-size:11px;font-weight:normal;fill:#666666;" text-anchor="end" transform="translate(0,0)" y="205" opacity="1">Switzerland</text><text x="100" style="color:#666666;cursor:default;font-size:11px;font-weight:normal;fill:#666666;" text-anchor="end" transform="translate(0,0)" y="161" opacity="1">UK</text><text x="100" style="color:#666666;cursor:default;font-size:11px;font-weight:normal;fill:#666666;" text-anchor="end" transform="translate(0,0)" y="117" opacity="1">USA</text><text x="100" style="color:#666666;cursor:default;font-size:11px;font-weight:normal;fill:#666666;" text-anchor="end" transform="translate(0,0)" y="72" opacity="1">Venezuela</text></g></svg>